<?xml version="1.0"?><svg width="640" height="480" xmlns="http://www.w3.org/2000/svg">
 <title>New Mexico ZIA by Nicola</title>
 <g>
  <title>Layer 1</title>
  <path id="svg_2" fill="#000000" fill-rule="evenodd" stroke="#000000" stroke-width="0.5px" d="m484.664856,235.510376c-24.666473,-0.170807 -90.947876,1.264175 -71.299286,7.087799c19.64859,5.823624 47.596832,3.447159 71.845276,4.170715q24.248444,0.723557 72.937042,1.986786q1.856201,1.324539 2.4021,6.291504q0.545898,4.96701 -1.965393,7.395325q-2.402039,2.538635 -76.103546,3.31131q-73.701385,0.882996 -74.793213,5.850006q-1.091919,4.96698 54.047699,5.187714q55.139526,0.331116 56.777466,1.986786q1.637695,1.65567 2.511108,5.739655q0.764404,4.194305 -1.746948,7.284851q-2.4021,2.980225 -64.638885,4.083984q-62.236725,1.10376 -64.42041,4.083954q-4.913483,4.194336 -6.00528,67.109467q-1.091949,62.91507 -2.94812,65.343384q-1.965363,2.538696 -7.424713,2.538696q-5.459351,0 -6.769592,-1.434906q-1.419434,-1.324585 -2.183777,-57.617035q-0.873474,-56.29245 -5.786896,-55.18866q-4.913422,1.10379 -5.131805,74.504761q-0.327576,73.400909 -2.183746,76.491455q-1.965393,2.980194 -6.332855,3.532104q-4.367554,0.55188 -6.769623,-1.324585q-2.511292,-1.986725 -3.275635,-74.835785q-0.873505,-72.849091 -5.786896,-72.849091c-5.01062,6.162964 -4.52124,46.826447 -5.131805,70.089661q-0.610565,23.263214 -0.873535,72.29715q-0.545898,2.207489 -2.40213,4.194336q-1.965332,1.876404 -6.332825,2.428314q-4.367523,0.55188 -6.00531,-0.220734q-1.637756,-0.883057 -2.511261,-2.538757q-0.764313,-1.65567 -1.528656,-76.160309c1.263,-25.508545 -1.115143,-77.375153 -4.511414,-74.825531c-3.396271,2.549622 -4.792664,35.200043 -6.088928,52.750061q-1.296265,17.550018 -1.191925,56.84433c-0.364624,1.730225 -2.972229,3.368896 -5.494049,3.890625c-2.52182,0.521729 -8.743835,1.043396 -10.665619,-2.234955q-1.921783,-3.278351 -1.856232,-64.57077q-1.091827,-62.9151 -4.695007,-66.447174q-3.493988,-3.642456 -66.276672,-5.298126c-21.728271,-1.545288 -61.643555,-2.976593 -64.784821,-4.635864c-3.141266,-1.659271 -3.277512,-7.992523 -2.323883,-10.374817c0.953629,-2.382294 1.897186,-2.713898 3.215744,-2.870453q1.318558,-0.156555 56.249817,-1.766022c19.197937,-0.045227 74.747421,-1.612244 55.093689,-5.635864c-19.653732,-4.023621 -39.407425,-4.347229 -59.461182,-5.07077q-83.528236,0 -87.895737,-1.10376c-3.132385,-0.476654 -6.435013,-3.720123 -6.797188,-7.730194c-0.362175,-4.010071 -0.224335,-8.620178 5.313431,-9.630142c5.537773,-1.009964 46.714485,-0.534607 70.271721,-0.851913c24.448441,-0.223511 88.429596,-1.841476 71.845215,-6.070755c-16.584412,-4.229279 -46.868881,-5.058563 -70.753342,-5.187759c-24.021194,-0.294342 -69.159126,-0.502594 -72.063583,-1.083023c-2.904472,-0.580429 -5.299927,-0.835129 -5.613457,-6.941437c-0.313545,-6.106308 3.692207,-10.150864 6.15937,-10.518906c2.467148,-0.368042 48.434235,-1.299973 73.701385,-1.10376c25.267151,0.196213 91.953415,-1.630203 73.601471,-5.411285c-18.351959,-3.781082 -35.003891,-3.862396 -53.355881,-4.443436c-18.759109,-0.578308 -52.403381,-1.111389 -55.077316,-1.734909c-2.673935,-0.62352 -4.54776,-2.747131 -5.021591,-6.07074c-0.473831,-3.323608 0.175446,-9.290649 5.113419,-10.48584c4.937973,-1.19519 41.655151,-1.103745 62.582718,-1.655624q62.782684,-1.65567 63.874512,-3.532104q6.00531,-5.298096 6.551208,-67.109421c0.727936,-21.70755 2.268494,-61.188053 2.933777,-63.122643c0.665283,-1.934589 1.830627,-3.46917 4.295959,-4.603767c2.465332,-1.134602 8.240753,-1.823292 10.132019,1.407547c1.891266,3.230831 1.882355,39.261635 2.073578,58.592453c0.191223,19.330818 3.080872,71.745621 7.15744,46.201904c4.076569,-25.543716 2.153107,-43.837433 3.979675,-69.381149q0.545959,-72.849047 3.05722,-75.277356c1.538483,-1.96226 3.076935,-2.72453 6.515533,-2.38679c3.042908,0.19528 6.885895,1.49056 7.678802,5.03584c1.977936,24.761321 2.205841,48.022651 2.183777,74.283969q0.218353,70.089638 5.131805,70.089638q4.913452,0 5.786896,-73.40097q0.764374,-73.400936 2.620575,-74.725467q1.965332,-1.434909 6.878754,-0.883019q4.913422,0.55188 6.878784,3.53207q1.856201,3.090569 2.620483,76.1604q0.873505,73.180176 5.240997,74.615082q4.367523,1.324539 5.240997,-54.967934q0.764282,-56.29245 3.275635,-58.27924q2.40213,-1.876408 6.769592,-1.324528q4.367493,0.55188 6.332855,3.090569q1.856171,2.42831 2.94809,64.791512q1.091858,62.363205 5.131775,66.557556q4.149139,4.083969 66.385895,5.187729q62.236664,1.10376 64.202057,3.642441q1.85614,2.428299 1.310303,6.843399q-0.546021,4.415085 -3.057251,6.401901q-2.4021,1.876419 -56.995789,2.20752q-54.593658,0.220779 -53.501709,5.18779q1.091827,4.966949 75.339203,5.84996q74.247345,0.772644 76.212738,3.31131q1.856079,2.428299 1.31012,7.395279q-0.545898,4.96701 -2.401978,6.291534q-1.965332,1.434906 -73.483063,1.766006l0.000031,0l0,-0.000046l0,0.000015l0,-0.000031zm-155.045929,-57.727341q15.832153,0 25.658997,4.4151q9.826874,4.415085 18.343475,12.914169q8.40744,8.609406 13.32077,19.647156q4.913483,11.037735 5.459381,24.28299q0.545959,13.2453 -1.637756,20.4198q-2.183777,7.174561 -7.643158,16.004761q-5.459351,8.83017 -13.86673,15.673615q-8.516632,6.953735 -17.251617,10.265045q-8.734924,3.31134 -20.199615,3.86322q-11.464661,0.55188 -20.745544,-2.20752q-9.280975,-2.75943 -18.015991,-8.830231q-8.734985,-6.07077 -14.412659,-14.128296q-5.786987,-7.947174 -9.062561,-16.225464q-3.275635,-8.278305 -3.821564,-18.76416q-0.545898,-10.485855 0.545959,-16.556641q1.091797,-6.07074 6.00528,-16.0047q4.913422,-9.93396 12.228973,-17.439606q7.424744,-7.395279 18.343445,-12.362274q10.918762,-4.96698 26.750916,-4.96698l0,0.000015z"/>
  <text fill="#000000" stroke="#000000" stroke-width="0" stroke-dasharray="null" stroke-linejoin="null" stroke-linecap="null" opacity="0.5" x="302" y="219" id="svg_3" font-size="24" font-family="serif" text-anchor="middle" xml:space="preserve"/>
 </g>
</svg>