<!DOCTYPE svg PUBLIC "-//W3C//DTD SVG 20010904//EN" "http://www.w3.org/TR/2001/REC-SVG-20010904/DTD/svg10.dtd">
<svg version="1.0" xmlns="http://www.w3.org/2000/svg" width="470px" height="352px" viewBox="0 0 4700 3520" preserveAspectRatio="xMidYMid meet">
<g id="layer101" fill="#007fff" stroke="none">
 <path d="M2369 3325 c-24 -25 -86 -31 -108 -11 -15 14 -24 15 -39 7 -11 -6 -34 -8 -50 -5 -42 8 -142 -14 -142 -32 0 -8 -4 -14 -10 -14 -5 0 -10 -13 -10 -30 0 -17 -9 -38 -22 -50 -26 -24 -48 -26 -48 -5 0 10 -10 15 -33 15 -18 0 -42 7 -54 15 -20 14 -25 11 -88 -41 -77 -62 -100 -75 -169 -95 -31 -9 -54 -23 -65 -39 -23 -37 -32 -41 -77 -34 -39 6 -41 5 -47 -24 -4 -18 -18 -37 -36 -48 -80 -52 -235 -201 -282 -273 -48 -75 -48 -76 -29 -93 21 -17 26 -43 10 -53 -5 -3 -10 -24 -10 -45 0 -21 5 -42 10 -45 12 -8 13 -42 1 -47 -10 -4 -2 -68 9 -68 10 0 40 80 40 108 0 12 4 22 9 22 6 0 9 12 8 28 -2 27 3 29 34 17 12 -4 19 2 27 23 6 17 34 54 63 83 48 48 51 53 34 65 -15 11 -16 16 -5 29 7 8 24 15 39 15 20 0 34 11 59 48 17 26 32 53 32 60 0 6 5 12 10 12 6 0 9 12 8 28 -2 21 1 27 17 27 11 0 32 8 48 19 27 18 75 19 118 2 9 -4 38 9 75 34 59 40 90 48 122 31 9 -5 25 -12 35 -15 21 -7 23 -36 2 -36 -9 0 -15 -9 -15 -22 0 -12 -8 -31 -19 -42 -10 -12 -21 -33 -25 -48 -5 -23 -3 -25 14 -21 29 8 48 -12 42 -45 -2 -15 -9 -33 -15 -39 -15 -20 -54 -15 -70 7 -8 11 -16 17 -20 14 -3 -3 -15 -1 -26 6 -18 9 -27 7 -54 -12 -47 -33 -76 -70 -77 -95 0 -33 12 -34 71 -12 89 35 102 35 143 -2 28 -24 40 -29 49 -20 17 17 47 13 47 -5 0 -9 -6 -22 -14 -28 -9 -7 -12 -22 -9 -41 4 -28 7 -30 42 -27 35 4 39 1 49 -26 12 -35 62 -53 87 -32 35 29 7 54 -46 43 -27 -5 -31 -3 -27 13 2 12 16 21 40 27 30 7 47 4 95 -17 90 -39 102 -40 126 -18 28 25 97 20 97 -8 0 -25 28 -46 42 -32 7 7 28 9 53 5 29 -4 45 -1 50 8 5 7 4 14 -3 17 -7 2 -12 10 -12 18 0 10 12 14 40 14 35 0 42 4 65 40 35 56 33 67 -22 80 -80 20 -107 18 -118 -7 -14 -33 -55 -31 -55 1 0 27 -15 42 -25 26 -10 -17 -43 -11 -58 10 -12 17 -19 18 -47 10 -19 -5 -50 -7 -71 -4 -31 5 -38 3 -41 -12 -2 -11 3 -31 12 -46 11 -21 12 -30 3 -39 -16 -16 -63 14 -63 41 0 10 -9 28 -20 38 -11 10 -18 26 -15 34 3 8 -2 21 -11 29 -14 12 -19 10 -38 -14 -12 -15 -29 -27 -39 -27 -24 0 -22 42 3 65 11 10 20 24 20 32 0 7 -9 13 -20 13 -23 0 -24 2 -9 72 13 65 32 96 65 108 13 5 28 20 33 33 6 16 23 27 53 36 61 17 118 42 118 53 0 13 -11 10 -65 -17 -84 -41 -103 -32 -63 29 26 39 107 68 133 46 10 -8 49 -11 124 -8 86 2 113 7 128 21 25 22 28 21 51 -3 15 -16 33 -20 104 -21 77 -2 87 -5 96 -24 11 -25 75 -46 113 -38 52 10 119 -49 119 -105 0 -10 7 -27 15 -38 17 -23 20 -54 4 -54 -7 0 -9 -9 -6 -21 7 -26 -17 -36 -56 -21 -26 10 -30 9 -34 -8 -5 -17 -14 -20 -74 -20 -56 0 -73 -4 -89 -20 -22 -22 -26 -40 -10 -40 6 0 10 -7 10 -15 0 -8 -4 -15 -10 -15 -5 0 -10 -7 -10 -16 0 -9 -9 -29 -21 -45 -13 -19 -19 -38 -15 -53 4 -16 -1 -30 -19 -46 -15 -14 -25 -35 -25 -51 0 -22 -8 -32 -30 -44 -17 -9 -36 -27 -42 -40 -6 -14 -15 -25 -19 -25 -18 0 -49 -46 -49 -72 0 -27 -2 -28 -50 -28 -38 0 -52 -4 -59 -19 -13 -24 -58 -36 -77 -20 -16 13 -56 -9 -87 -48 -10 -13 -24 -23 -31 -23 -8 0 -11 -10 -8 -30 l4 -30 -48 6 c-27 4 -64 15 -81 26 -36 21 -70 19 -131 -8 -40 -18 -54 -11 -46 23 5 19 3 24 -7 21 -8 -3 -13 -16 -11 -32 2 -22 -1 -26 -23 -26 -14 0 -28 7 -31 15 -11 28 -19 15 -20 -32 -1 -46 -20 -73 -51 -73 -35 0 2 165 42 187 8 5 18 26 22 46 5 33 3 37 -21 43 -33 8 -66 3 -202 -32 -85 -22 -113 -34 -120 -49 -5 -12 -17 -19 -27 -17 -10 2 -25 -2 -33 -9 -8 -7 -27 -9 -45 -5 -26 5 -37 0 -80 -42 -56 -53 -64 -76 -80 -212 -11 -102 -13 -105 -72 -197 -39 -61 -62 -77 -73 -49 -3 8 -15 11 -29 8 -29 -5 -44 21 -28 47 6 10 7 25 1 40 -10 27 -3 90 17 166 32 118 36 138 40 207 6 104 -21 170 -77 191 -30 11 -22 54 12 72 26 13 30 21 30 55 0 21 5 42 10 45 6 3 10 21 10 38 l-1 32 -29 -35 c-42 -49 -120 -211 -135 -280 -4 -18 -18 -48 -31 -68 -14 -19 -27 -47 -30 -61 -2 -14 -11 -48 -18 -76 -8 -27 -17 -80 -21 -117 l-7 -68 29 0 c41 0 55 -13 51 -46 -2 -20 -9 -30 -23 -32 -20 -4 -45 -28 -45 -44 0 -4 18 -8 40 -8 38 0 40 -1 40 -32 0 -18 7 -60 15 -93 18 -74 19 -137 3 -153 -19 -19 -44 -14 -61 11 -15 21 -16 20 -16 -35 -1 -36 5 -67 17 -87 19 -35 25 -37 42 -16 19 23 77 19 85 -6 11 -34 -5 -90 -32 -115 -23 -21 -25 -27 -15 -50 7 -14 12 -33 12 -43 0 -9 11 -33 26 -52 14 -19 39 -62 56 -97 19 -37 47 -75 70 -93 32 -26 38 -37 38 -69 0 -29 4 -39 20 -43 13 -3 18 -11 14 -20 -4 -11 6 -23 30 -39 20 -13 42 -35 49 -51 22 -44 128 -157 148 -157 11 0 19 -6 19 -14 0 -18 47 -56 70 -56 9 0 22 -11 27 -23 12 -26 129 -91 145 -81 5 3 12 -3 15 -15 3 -12 13 -21 24 -21 11 0 19 -4 19 -10 0 -5 11 -10 25 -10 15 0 39 -7 54 -15 16 -8 64 -22 107 -31 44 -8 84 -19 89 -24 6 -4 30 -13 55 -20 25 -7 59 -19 77 -26 23 -10 48 -12 90 -7 32 4 63 6 68 4 32 -11 40 -5 40 29 0 29 4 36 23 38 12 2 22 -1 22 -7 0 -5 10 -11 23 -13 14 -2 23 -11 25 -25 3 -19 7 -21 28 -13 14 6 40 10 58 10 17 0 37 5 43 11 5 5 68 14 139 18 87 5 139 13 161 24 18 10 46 17 62 17 43 0 141 50 141 72 0 10 11 25 25 34 20 13 28 14 40 4 21 -17 62 -5 107 33 65 56 96 77 127 88 25 9 31 17 31 40 0 18 -6 32 -16 36 -9 3 -14 15 -12 32 1 14 -1 32 -6 39 -5 8 -4 18 3 25 7 7 12 6 16 -6 5 -11 15 -14 41 -10 30 5 34 3 34 -16 0 -15 6 -21 23 -21 41 1 101 55 169 150 36 52 78 109 92 126 20 24 25 39 20 62 -5 25 -2 30 18 35 20 5 24 13 25 49 2 60 2 109 2 136 -1 28 28 63 46 55 9 -3 20 8 30 29 8 18 28 51 45 73 29 39 29 40 10 54 -24 16 -26 46 -5 55 8 3 15 12 15 21 0 9 9 15 21 15 19 0 21 4 15 44 -6 36 -3 48 12 63 30 28 35 90 11 129 -18 30 -61 54 -98 54 -22 0 -61 44 -61 68 0 12 14 29 35 42 35 22 35 22 35 97 0 65 3 76 19 80 16 4 18 13 16 76 -4 101 -38 191 -93 244 -36 35 -43 49 -41 75 4 59 0 68 -26 68 -18 0 -25 5 -25 19 0 19 -18 31 -46 31 -8 0 -14 -6 -14 -14 0 -21 -28 -46 -51 -46 -10 0 -19 6 -19 14 0 8 -8 21 -18 28 -10 7 -21 21 -25 31 -9 24 -37 22 -37 -4 0 -11 8 -33 19 -47 10 -15 33 -58 50 -97 18 -38 42 -92 56 -120 60 -127 74 -164 85 -225 7 -36 19 -77 28 -92 14 -24 14 -30 -1 -68 -9 -23 -13 -55 -10 -73 2 -18 -2 -60 -11 -93 -9 -34 -16 -76 -16 -93 0 -28 3 -31 30 -31 34 0 42 -25 11 -35 -24 -7 -35 -57 -15 -68 21 -12 17 -55 -7 -67 -11 -7 -22 -10 -23 -8 -1 2 -6 16 -11 33 -7 19 -19 31 -35 35 -25 6 -25 8 -25 105 0 55 -4 106 -8 113 -5 6 -19 12 -32 12 -14 0 -29 8 -35 19 -15 29 -12 41 10 41 11 0 20 5 20 10 0 29 -60 121 -111 171 -32 32 -67 76 -79 98 -19 37 -33 46 -67 42 -7 -1 -13 14 -15 36 -3 35 -6 39 -41 47 -27 7 -44 6 -58 -2 -27 -17 -43 -15 -64 8 -10 11 -25 20 -33 20 -9 0 -13 7 -9 20 3 14 -1 24 -15 31 -16 9 -19 17 -13 46 9 47 -14 81 -57 85 -29 3 -33 7 -33 32 -1 37 -37 65 -93 73 -34 5 -42 3 -42 -11 0 -20 -38 -22 -46 -2 -3 8 3 26 13 41 15 21 24 24 50 20 31 -6 32 -5 38 42 4 26 8 53 10 59 2 6 43 11 102 12 l99 2 38 -45 c43 -52 53 -56 52 -17 0 15 3 43 6 62 7 32 4 37 -28 58 -20 12 -39 22 -45 22 -5 0 -11 11 -15 25 -3 14 -13 25 -21 25 -10 0 -13 9 -11 33 3 30 5 32 38 30 60 -5 74 -12 98 -50 19 -29 23 -46 18 -75 -6 -34 -3 -39 23 -53 17 -8 38 -15 49 -15 21 0 100 -48 121 -73 20 -24 46 -21 66 9 16 24 16 26 -2 40 -10 7 -21 14 -25 14 -16 0 -7 77 12 114 25 50 14 71 -43 87 -23 6 -62 27 -85 46 -38 31 -43 40 -38 64 5 24 2 29 -14 29 -11 0 -33 14 -50 30 -17 17 -37 30 -45 30 -8 0 -20 9 -27 20 -8 12 -24 20 -40 20 -21 0 -28 5 -28 19 0 15 -10 19 -57 23 -31 3 -59 10 -61 16 -2 7 -13 22 -24 34 l-19 23 5 -32 c6 -34 1 -37 -37 -33 -22 2 -57 35 -57 53 0 22 10 26 41 17 16 -5 29 -5 29 0 0 9 -73 32 -163 50 -55 11 -60 10 -81 -9 -25 -24 -76 -29 -76 -7 0 30 -35 55 -85 61 -27 3 -70 8 -95 11 -34 4 -49 2 -61 -11z m21 -55 c0 -23 -25 -27 -33 -6 -7 16 1 26 20 26 7 0 13 -9 13 -20z m-355 -229 c0 -19 -7 -26 -30 -33 -42 -11 -54 6 -25 37 29 31 55 29 55 -4z m-305 0 c0 -12 -23 -31 -37 -31 -17 0 -17 37 0 43 14 5 37 -2 37 -12z m130 -37 c0 -17 -22 -14 -28 4 -2 7 3 12 12 12 9 0 16 -7 16 -16z m680 -438 c0 -26 -20 -39 -45 -30 -18 7 -20 40 -2 47 30 13 47 7 47 -17z m320 -203 c74 -54 119 -93 131 -114 15 -29 -43 -62 -91 -53 -48 10 -300 11 -300 2 0 -5 16 -8 36 -8 34 0 35 -1 32 -32 -3 -31 -2 -32 57 -44 104 -22 115 -26 126 -46 30 -55 -46 -66 -122 -18 -28 19 -66 33 -96 37 -44 5 -53 2 -77 -20 l-28 -26 39 -24 c21 -13 48 -29 60 -36 13 -6 27 -28 33 -50 5 -21 21 -55 35 -75 14 -20 25 -47 25 -59 0 -12 7 -31 15 -41 13 -17 13 -23 -5 -53 -11 -19 -20 -40 -20 -48 0 -21 59 1 89 33 18 20 27 23 40 15 10 -6 29 -9 43 -6 19 4 26 0 30 -15 4 -15 12 -19 32 -15 32 7 33 -7 2 -36 -26 -25 -83 -32 -96 -11 -5 7 -18 10 -36 6 -16 -3 -35 -2 -42 3 -19 11 -68 -35 -64 -60 2 -12 -3 -19 -13 -19 -28 0 -94 -50 -95 -72 0 -5 9 -8 21 -8 14 0 19 -5 17 -17 -3 -15 -12 -17 -54 -15 -46 3 -54 1 -75 -25 -26 -31 -51 -45 -116 -62 -24 -7 -43 -16 -43 -21 0 -6 -9 -10 -20 -10 -23 0 -26 -10 -8 -28 23 -23 -11 -33 -46 -14 -17 9 -49 18 -71 21 -31 5 -40 11 -41 26 -2 35 -3 36 -33 21 -35 -19 -43 -38 -31 -71 13 -34 35 -41 74 -23 29 14 35 14 69 -3 23 -12 37 -27 37 -39 0 -10 5 -22 11 -25 6 -4 8 -29 6 -61 -4 -44 -2 -54 13 -59 9 -3 27 -16 40 -30 19 -21 21 -27 10 -40 -16 -19 -75 -45 -102 -45 -10 0 -21 -7 -24 -15 -3 -8 -16 -15 -27 -14 -44 0 -68 -6 -77 -21 -16 -25 -11 -39 19 -55 30 -15 86 -11 97 6 9 15 24 10 24 -7 0 -27 22 -10 49 39 23 44 41 60 41 37 0 -18 21 -10 45 17 26 31 47 24 27 -8 -12 -18 -11 -21 7 -26 29 -7 27 -16 -14 -60 -21 -23 -35 -48 -35 -64 0 -14 -3 -29 -7 -33 -4 -4 -8 -15 -8 -24 0 -10 -8 -17 -20 -18 -40 -2 -45 -4 -45 -18 0 -8 -17 -23 -37 -33 -25 -11 -39 -26 -41 -41 -2 -12 -10 -22 -18 -22 -8 0 -14 -7 -14 -16 0 -11 -6 -15 -19 -11 -15 4 -20 -2 -24 -30 -7 -39 0 -63 17 -63 7 0 36 23 66 51 61 57 33 51 275 63 40 2 71 8 73 15 2 6 21 11 43 11 51 0 119 35 119 62 0 13 5 18 14 15 13 -5 44 33 98 122 27 45 163 65 243 36 49 -18 82 -19 87 -3 3 7 13 13 24 13 34 0 28 32 -8 43 -36 12 -187 10 -206 -2 -6 -4 -21 -2 -32 4 -14 7 -25 7 -38 -1 -14 -9 -25 -7 -55 10 -21 12 -46 21 -57 21 -13 0 -20 7 -20 19 0 13 17 29 53 48 29 16 52 35 52 44 0 22 58 69 84 69 12 0 21 5 21 10 0 20 27 9 38 -15 20 -45 62 -24 62 30 -1 62 -80 105 -131 71 -31 -20 -140 -37 -156 -24 -21 17 -25 65 -9 96 14 26 14 32 1 42 -11 9 -12 17 -4 31 8 16 6 19 -10 19 -31 0 -81 -54 -81 -87 0 -54 21 -108 53 -135 29 -25 31 -28 16 -43 -38 -38 -172 -53 -242 -26 -31 12 -117 80 -117 93 0 4 11 8 24 8 24 0 31 12 45 70 4 16 20 32 44 43 20 10 37 22 37 27 0 5 16 14 35 20 24 8 35 18 35 31 0 14 7 19 29 19 21 0 30 6 34 21 5 17 11 20 32 17 21 -4 28 -1 35 18 8 19 17 24 46 24 45 0 192 75 206 105 5 11 22 27 37 36 30 18 98 133 108 183 3 17 10 36 14 42 5 6 -3 22 -21 39 -34 32 -40 65 -12 65 10 0 28 7 41 17 23 16 25 15 42 -5 9 -12 25 -22 34 -22 10 0 15 -6 13 -17 -3 -12 -12 -17 -27 -15 -23 2 -23 0 -18 -41 4 -31 2 -50 -8 -63 -19 -25 -19 -64 -1 -64 8 0 27 16 42 36 24 31 31 35 60 29 18 -3 35 -1 39 5 12 19 24 10 76 -60 46 -62 56 -70 85 -70 44 0 51 -15 20 -44 -14 -13 -26 -32 -26 -43 0 -12 -7 -43 -16 -70 -13 -41 -14 -62 -5 -119 18 -121 23 -134 57 -171 41 -43 42 -50 9 -65 -25 -11 -28 -18 -40 -88 -13 -78 -18 -92 -41 -107 -13 -8 -24 -20 -24 -26 0 -28 -47 -77 -78 -83 -22 -4 -37 -15 -44 -30 -6 -13 -20 -26 -30 -30 -11 -3 -23 -16 -28 -28 -5 -15 -20 -25 -39 -29 -23 -5 -31 -12 -31 -27 0 -16 -5 -19 -23 -15 -16 4 -35 -4 -67 -28 -25 -19 -57 -37 -71 -40 -16 -4 -29 -16 -33 -29 -3 -13 -13 -32 -21 -43 -13 -16 -19 -17 -34 -8 -20 12 -32 10 -126 -24 -50 -19 -131 -51 -170 -68 -42 -19 -105 -38 -138 -41 -36 -5 -67 -21 -67 -36 0 -7 -17 -29 -37 -50 -43 -44 -85 -51 -104 -17 -9 17 -7 25 11 44 33 35 15 50 -24 20 -18 -14 -45 -25 -59 -25 -22 0 -27 5 -27 25 0 17 -9 29 -30 40 -35 18 -56 19 -114 3 -40 -11 -52 -9 -160 27 -65 21 -128 48 -142 62 -32 29 -42 29 -54 -2 -5 -14 -14 -25 -19 -25 -15 0 -32 36 -25 54 5 12 -1 16 -23 16 -28 0 -113 51 -121 72 -8 20 -35 38 -58 38 -13 0 -29 9 -36 20 -7 11 -36 36 -65 56 -28 19 -59 46 -67 59 -9 13 -25 26 -36 30 -14 5 -19 12 -15 24 3 10 -5 34 -20 55 -14 20 -25 42 -25 48 0 6 -8 4 -19 -6 -17 -16 -19 -15 -35 9 -9 13 -19 46 -22 72 -4 29 -17 62 -33 83 -54 72 -58 82 -48 129 8 37 7 45 -7 53 -19 11 -21 35 -3 41 9 3 9 7 1 18 -14 17 -54 148 -54 177 0 24 48 62 78 62 29 0 46 24 33 49 -14 25 3 38 25 20 10 -8 13 -21 9 -37 -4 -18 0 -28 17 -41 13 -8 30 -14 38 -13 23 4 59 -50 66 -100 4 -26 17 -54 33 -71 25 -28 26 -29 7 -43 -11 -8 -28 -12 -38 -8 -12 4 -18 0 -18 -11 0 -13 -6 -16 -25 -13 -18 4 -29 -1 -40 -19 -9 -13 -13 -28 -10 -33 15 -25 128 5 157 40 23 28 21 85 -7 259 -15 96 -15 109 -1 146 21 53 21 52 -13 70 -25 12 -30 21 -30 52 0 64 -2 72 -22 78 -28 9 -24 19 16 41 19 10 35 22 35 26 0 12 28 9 36 -3 3 -6 8 -52 10 -101 2 -50 4 -92 6 -93 8 -7 135 19 153 31 10 8 30 14 43 14 13 0 43 13 67 30 24 16 54 35 67 40 13 6 43 22 68 35 48 27 70 31 70 15 0 -6 9 -30 21 -54 19 -42 20 -46 4 -70 -10 -14 -25 -26 -34 -26 -18 0 -41 -18 -41 -32 0 -4 9 -8 20 -8 16 0 20 -7 20 -30 0 -33 -9 -37 -41 -17 -18 10 -23 9 -40 -12 -44 -54 -137 -74 -196 -42 -25 13 -70 15 -77 3 -10 -17 7 -54 30 -63 15 -5 24 -17 24 -30 0 -12 8 -23 20 -26 23 -6 25 -16 6 -32 -8 -7 -16 -43 -21 -89 -3 -42 -9 -86 -11 -98 -3 -12 1 -28 9 -36 8 -8 18 -29 22 -47 4 -20 15 -35 26 -38 10 -3 21 -14 24 -24 4 -10 11 -19 16 -19 5 0 9 -7 9 -15 0 -22 57 -82 101 -107 23 -13 55 -45 75 -75 19 -29 41 -56 48 -60 8 -4 24 -26 36 -47 22 -41 21 -86 -4 -86 -7 0 -21 -10 -32 -21 -10 -12 -34 -28 -51 -36 -18 -7 -33 -18 -33 -24 0 -14 -57 -2 -90 20 -51 34 -79 74 -86 128 -7 55 -13 63 -33 39 -17 -21 -26 -106 -11 -106 16 0 39 -30 40 -51 0 -19 22 -40 74 -69 45 -25 121 -29 157 -8 68 38 94 80 103 170 5 50 2 64 -23 115 -49 97 -49 104 4 157 26 25 51 46 56 46 11 0 39 66 39 91 0 12 -7 19 -18 19 -26 0 -33 10 -22 30 7 13 4 22 -9 34 -25 22 -55 11 -46 -18 4 -11 9 -42 12 -68 5 -45 4 -47 -34 -72 l-39 -26 -69 23 -69 22 -21 65 c-12 36 -25 73 -30 83 -4 10 -5 31 -2 46 5 23 2 30 -15 34 -23 6 -20 32 5 32 9 0 26 15 39 34 13 18 47 46 77 61 29 16 61 37 71 47 10 10 37 32 61 48 58 41 82 97 87 208 4 83 4 87 -17 87 -22 0 -28 14 -10 25 6 4 8 22 4 45 -5 32 -3 40 13 49 11 6 22 8 25 4 19 -18 128 -53 169 -53 44 0 48 2 64 35 27 58 102 85 124 46 10 -19 10 -19 51 1 23 10 69 24 102 29 70 12 72 12 63 35 -5 13 -15 15 -51 10 -37 -6 -45 -4 -45 8 0 16 48 46 75 46 23 0 18 17 -7 24 -23 6 -23 6 6 33 22 20 42 28 77 30 65 4 147 46 155 81 13 54 23 55 94 5z m-1110 -123 c0 -13 -9 -22 -25 -26 -24 -6 -24 -7 -8 -19 17 -13 16 -16 -16 -49 -32 -33 -33 -38 -27 -84 7 -55 1 -82 -20 -82 -8 0 -16 16 -20 40 -8 46 -18 57 -39 40 -17 -14 -21 -95 -5 -105 29 -18 -23 -104 -55 -91 -8 3 -17 30 -21 62 -5 44 -3 63 10 84 9 16 16 37 16 48 0 41 11 52 51 52 37 0 51 12 29 25 -11 7 -3 53 14 74 11 15 82 49 104 50 6 1 12 -8 12 -19z m-830 -43 c0 -8 9 -22 20 -32 24 -21 27 -75 5 -75 -26 0 -65 52 -65 87 0 26 4 33 20 33 11 0 20 -6 20 -13z m1560 -2 c0 -11 -11 -15 -40 -15 -62 0 -50 27 13 29 18 1 27 -4 27 -14z m-910 -58 c0 -5 -11 -18 -25 -28 -13 -11 -22 -26 -19 -33 10 -26 -24 -76 -51 -76 -22 0 -25 -5 -25 -34 0 -37 -21 -62 -45 -52 -8 3 -15 15 -15 26 0 32 50 130 66 130 9 0 14 10 14 28 0 28 29 64 60 75 15 5 40 -18 40 -36z m1647 -17 c15 -30 17 -106 3 -115 -15 -10 -90 17 -90 32 0 7 10 18 23 23 l22 9 -22 0 c-12 1 -33 -10 -47 -24 -45 -45 -106 -21 -106 42 0 32 2 35 23 27 12 -4 44 -8 71 -8 40 -1 51 3 64 22 19 28 42 25 59 -8z m-1910 -76 c3 -8 -2 -23 -11 -32 -15 -15 -18 -15 -26 -2 -5 8 -10 23 -10 33 0 22 38 23 47 1z m1883 -64 c0 -5 -7 -10 -15 -10 -8 0 -15 5 -15 10 0 6 7 10 15 10 8 0 15 -4 15 -10z m-260 -46 l0 -37 40 7 c22 3 58 9 80 12 32 5 40 4 40 -9 0 -9 -9 -22 -20 -30 -11 -8 -23 -28 -26 -45 -6 -28 -4 -32 15 -32 17 0 21 -6 21 -30 0 -35 -52 -89 -86 -90 -18 0 -21 6 -20 38 1 23 -3 36 -11 35 -70 -14 -125 -19 -129 -12 -3 5 2 22 11 38 22 44 19 59 -19 75 -31 13 -66 58 -66 86 0 15 36 12 50 -5 7 -8 26 -15 42 -15 27 0 30 3 24 25 -6 23 -3 25 24 25 28 0 30 -3 30 -36z m-1672 -220 c28 -8 29 -40 1 -54 -28 -16 -49 -6 -49 23 0 36 8 41 48 31z m542 -48 c0 -31 -36 -57 -66 -50 -18 5 -31 -2 -53 -26 -38 -42 -106 -53 -135 -22 -25 28 -13 41 32 35 39 -5 122 27 172 67 34 26 50 25 50 -4z m1028 -83 c2 -14 -4 -26 -17 -32 -25 -14 -34 -1 -25 34 8 32 38 30 42 -2z m807 -164 c8 -25 6 -27 -32 -35 -26 -5 -32 -2 -38 15 -9 29 1 41 35 41 20 0 31 -6 35 -21z m-1811 -358 c10 -16 -5 -41 -25 -41 -16 0 -39 26 -39 44 0 10 58 7 64 -3z m923 -57 c8 -21 -13 -42 -28 -27 -13 13 -5 43 11 43 6 0 13 -7 17 -16z m-242 -55 c0 -8 -10 -15 -22 -17 -25 -4 -33 22 -10 31 18 8 32 2 32 -14z m259 -38 c3 -4 0 -20 -7 -35 -9 -20 -17 -25 -33 -21 -16 3 -23 -1 -27 -16 -3 -12 -12 -19 -19 -17 -19 7 -23 38 -4 38 8 0 16 10 18 22 2 14 13 25 28 29 36 10 38 10 44 0z m-116 -123 c13 -17 -2 -54 -28 -68 -12 -6 -35 -8 -51 -5 -27 6 -30 10 -24 33 4 15 7 27 8 28 43 27 79 31 95 12z m372 -383 c0 -12 -21 -25 -41 -25 -17 0 -9 38 9 43 22 5 32 -1 32 -18z m-52 -52 c5 -17 -26 -29 -40 -15 -6 6 -7 15 -3 22 9 14 37 9 43 -7z"/>
 <path d="M2786 2321 c-9 -15 23 -36 36 -23 5 5 7 15 4 21 -9 13 -33 14 -40 2z"/>
 <path d="M2240 1856 c0 -16 -54 -75 -84 -91 -18 -11 -27 -56 -30 -152 -1 -33 -5 -43 -18 -43 -9 0 -19 -4 -22 -8 -8 -13 45 -60 82 -73 29 -10 35 -9 47 7 18 25 50 7 50 -27 0 -23 4 -24 84 -29 l84 -5 47 45 c48 45 74 110 50 125 -18 11 -11 47 11 52 17 5 20 11 15 36 -4 17 -15 41 -26 52 -11 12 -20 29 -20 38 0 20 -33 39 -54 31 -21 -8 -124 15 -168 37 -45 23 -48 23 -48 5z m158 -200 c-4 -17 -1 -23 9 -19 7 3 13 -2 13 -11 0 -23 -75 -23 -84 0 -8 21 21 54 47 54 15 0 18 -5 15 -24z m-228 -36 c0 -11 -4 -20 -9 -20 -11 0 -22 26 -14 34 12 12 23 5 23 -14z"/>
 <path d="M3355 1710 c4 -6 11 -8 16 -5 14 9 11 15 -7 15 -8 0 -12 -5 -9 -10z"/>
 <path d="M3197 1683 c-4 -3 -7 -13 -7 -21 0 -12 3 -12 15 -2 8 7 15 16 15 21 0 11 -14 12 -23 2z"/>
 <path d="M2930 1820 c0 -5 7 -10 15 -10 8 0 15 5 15 10 0 6 -7 10 -15 10 -8 0 -15 -4 -15 -10z"/>
 <path d="M1930 3260 c0 -7 3 -10 7 -7 3 4 3 10 0 14 -4 3 -7 0 -7 -7z"/>
 <path d="M1755 2761 c-6 -11 9 -23 19 -14 9 9 7 23 -3 23 -6 0 -12 -4 -16 -9z"/>
 <path d="M3527 2763 c-4 -3 -7 -21 -7 -39 0 -23 6 -37 21 -44 11 -6 19 -19 18 -28 -1 -9 2 -28 8 -42 10 -24 10 -24 21 -3 6 11 8 23 5 27 -3 3 1 14 10 24 15 16 14 21 -14 65 -27 44 -46 56 -62 40z"/>
 <path d="M3234 2589 c-9 -15 16 -30 46 -27 14 2 26 10 28 21 3 13 -4 17 -32 17 -19 0 -38 -5 -42 -11z"/>
 <path d="M1826 2419 c-3 -17 -6 -36 -6 -42 0 -16 14 2 16 21 1 9 5 25 9 35 4 9 3 17 -3 17 -5 0 -12 -14 -16 -31z"/>
 <path d="M2248 2413 c-29 -5 -37 -20 -15 -29 18 -6 67 13 67 26 0 10 -3 10 -52 3z"/>
 <path d="M1890 2394 c0 -8 5 -12 10 -9 6 3 10 10 10 16 0 5 -4 9 -10 9 -5 0 -10 -7 -10 -16z"/>
 <path d="M2086 2368 c-37 -19 -39 -21 -21 -34 30 -22 71 -17 89 11 9 13 16 29 16 35 0 16 -42 11 -84 -12z"/>
 <path d="M1945 2371 c-3 -6 -15 -11 -26 -11 -34 0 -70 -49 -67 -89 4 -44 21 -49 53 -15 23 25 24 28 9 45 -22 24 -10 43 18 28 16 -9 29 -7 59 7 22 9 38 22 36 28 -5 15 -73 20 -82 7z"/>
 <path d="M2350 2360 c0 -5 9 -10 20 -10 11 0 20 5 20 10 0 6 -9 10 -20 10 -11 0 -20 -4 -20 -10z"/>
 <path d="M2225 2300 c-3 -5 -17 -10 -31 -10 -13 0 -24 -4 -24 -10 0 -11 62 -13 98 -4 33 9 28 34 -7 34 -17 0 -33 -4 -36 -10z"/>
 <path d="M2007 2259 c-18 -16 -41 -35 -52 -43 -29 -21 -13 -29 44 -21 59 8 110 47 92 69 -23 27 -52 26 -84 -5z"/>
 <path d="M762 1584 c9 -9 21 -13 27 -10 20 13 11 26 -16 26 -25 0 -26 -1 -11 -16z"/>
 <path d="M3800 1110 c0 -7 3 -10 7 -7 3 4 3 10 0 14 -4 3 -7 0 -7 -7z"/>
 </g>

</svg>