<?xml version="1.0" encoding="utf-8"?>
<svg width="168.21mm" height="178.95mm" viewBox="0 0 596.04 634.06" version="1.1" xmlns="http://www.w3.org/2000/svg">
  <g transform="matrix(.82369 0 0 .82369 -556.26 -757.83)" fill="#bdbdb0" stroke="#000" stroke-linejoin="round" stroke-width="3.6422">
    <path d="m1270.7 1e3c-3.275-8.2512-2.74-18.769 0.4887-28.258 4.5438-13.354 14.422-24.671 21.925-34.139 7.5025-9.4662 12.629-17.081 7.0638-15.59-5.5663 1.4912-21.824 12.089-35.1 20.48-13.278 8.3925-23.575 14.58-34.458 21.685s-22.349 15.128-34.069 24.01c-11.72 8.8838-23.692 18.627-32.694 26.01-25.46 20.885-27.139 22.875-28.764 24.806-50.782 60.358-50.506 64.301-50.825 68.795-0.1587 2.2462-0.48 4.555-0.9037 6.6863-0.4225 2.1325-0.945 4.135-1.5125 6.025-1.1338 3.7812-2.4 7.0625-3.81 10.597-1.41 3.5351-2.1963 5.4076-2.6938 9.6251-0.535 4.5437-0.735 11.809-0.5975 15.575 0.1325 3.6587 0.5825 4.015 1.0588 4.4 0.2275 0.1837 0.4612 0.3737 1.1075 0.67 1.3175 0.6037 4.3475 1.6462 7.6225-3.64 0.017-0.029 0.035-0.058-0.046-6.0688-0.079-5.7063 4.5225-13.625 8.5825-20.022 8.12-12.796 14.074-19.509 20.941-26.245 27.474-26.945 69.58-54.271 119.8-83.322 25.109-14.525 33.228-19.744 34.366-20.476 0.086-0.056 1.3037-0.8326 2.5175-1.6038z"/>
    <path d="m1367.9714 975.59c-0.2669-0.0156-0.5778-4e-3 -0.9356 0.0371-5.725 0.65625-23.362 8.747-37.728 15.096-14.368 6.3475-25.463 10.955-37.272 16.383-11.809 5.4275-24.33 11.676-36.51 18.006s-24.02 12.741-35.707 19.537c-11.688 6.795-23.225 13.975-34.537 21.521-11.312 7.545-22.401 15.454-32.844 24.043-10.444 8.5888-20.24 17.855-29.893 27.617-9.6538 9.7613-19.162 20.021-24.295 32.363-5.1313 12.344-5.8838 26.771-2.2188 39.674s11.745 24.28 19.15 35.816c7.4038 11.535 14.128 23.232 16.707 36.848 2.5776 13.618 1.0078 29.156-7.3359 38.383-8.3438 9.2262-23.462 12.14-37.613 13.088-14.151 0.9487-27.337-0.069-40.703 0.9394-13.366 1.01-26.913 4.0462-39.146 10-12.235 5.955-23.154 14.828-30.682 26.051-7.5262 11.222-11.659 24.795-11.434 38.219 0.22375 13.423 4.8046 26.696 18.943 34.408 14.139 7.7137 37.835 9.8663 38.633 11.348 0.7987 1.4825-21.303 2.2961-36.525-2.5039-15.224-4.8-23.569-15.212-28.717-27.576-5.1475-12.362-7.0971-26.678-3.9434-39.744 3.1525-13.066 11.408-24.884 21.68-33.666 10.271-8.7813 22.555-14.526 32.754-18.272 10.2-3.7438 18.312-5.4864 43.434-7.5176-0.1963-2.1413-1.8418-6.1252-1.7168-10.272 0.125-4.1475 2.0203-8.4563 5.2441-10.392 3.2237-1.9351 7.7749-1.4967 13.139-0.4317 5.3625 1.0662 11.538 2.7583 12.467 1.6445 0.9287-1.1125-3.3892-5.0318-6.248-8.8906-2.8587-3.8587-4.2579-7.6582-6.1016-11.158-1.8425-3.5013-4.1278-6.7037-7.0078-9.7637s-6.3538-5.9779-6.7813-9.8691c-0.4263-3.8913 2.1919-8.756 5.4356-9.5098 3.245-0.7537 7.1141 2.6055 12.852 6.043 5.7377 3.4375 13.344 6.9548 15.258 6.9238 1.915-0.033-1.8625-3.6136-4.2637-7.1386-2.4013-3.5263-3.4279-6.9968-5.0742-10.467-1.6462-3.47-3.9109-6.9412-6.3184-10.232-2.4063-3.2925-4.953-6.4056-7.5117-9.4043-2.5575-2.9988-5.1284-5.8823-7.6172-9.3398-2.49-3.4575-4.8969-7.4872-4.1094-10.93 0.7875-3.4438 4.7706-6.2992 12.047-5.0254 7.275 1.2737 17.841 6.6744 20.25 7.3281 2.4087 0.6525-3.3416-3.4452-6.9141-7.0527s-4.9685-6.7258-6.8222-10.02c-1.8538-3.2926-4.1638-6.7623-6.7188-9.9785-2.555-3.2175-5.3543-6.1816-8.2343-8.7754-2.88-2.595-5.8407-4.818-8.9219-8.1055-3.0813-3.2862-6.2851-7.6384-2.7051-9.6621 3.58-2.0225 13.944-1.7163 17.387-2.4375 3.4437-0.72-0.033-2.4667-2.9746-4.7617-2.9412-2.2938-5.3455-5.1343-8.0293-7.9531-2.685-2.8187-5.6499-5.6153-8.7637-8.2578-3.1137-2.6412-6.3761-5.129-9.6386-7.209s-6.526-3.7516-10.541-5.8066c-4.015-2.0537-8.7821-4.4902-7.9883-5.6152 0.795-1.1263 7.1499-0.94148 11.906-1.709 4.7562-0.7688 7.9137-2.4884 10.902-4.9434 2.9888-2.455 5.8105-5.6464 9.1718-10.41 3.36-4.7637 7.2588-11.102 10.156-16.139 2.8975-5.0375 4.7926-8.774 5.7676-12.584 0.9737-3.81 1.027-7.6948 0.8457-11.979-0.1825-4.2825-0.5984-8.9641-1.7559-11.883-1.1575-2.9175-3.0575-4.0709-4.6738-2.1621-1.6175 1.91-2.9515 6.8831-5.1953 10.641-2.245 3.7563-5.3972 6.2981-8.586 8.3281-3.1887 2.0312-6.4125 3.5522-10.812 5.2559-4.3987 1.7038-9.9736 3.5899-11.764 2.1074-1.79-1.4837 0.2057-6.3346 1.0507-10.662 0.8445-4.3275 0.5396-8.1309 0.082-12.068-0.4575-3.9375-1.0671-8.0084-2.4571-11.617-1.39-3.6087-3.5595-6.7564-6.3808-10.178-2.8225-3.4225-6.2969-7.1208-8.5957-8.3945-2.2987-1.2738-3.4223-0.12407-3.2461 2.7734 0.175 2.8988 1.651 7.5444 1.666 11.748 0.0162 4.205-1.4283 7.9687-3.3008 11.514-1.8738 3.545-4.1749 6.8733-6.8262 9.877-2.6512 3.0038-5.6541 5.6855-9.0078 7.9668-3.3538 2.2825-7.0575 4.1671-10.938 4.5996-3.8812 0.4325-7.9395-0.58708-11.926-1.4258-3.9875-0.8375-7.9068-1.4964-11.873-2.0176-3.9662-0.5213-7.9815-0.90501-11.99-1.1113-4.0075-0.2065-8.011-0.23153-12.041-0.0527-4.03 0.1787-8.0872 0.56172-11.961 1.3242-3.8738 0.7612-7.5639 1.9-11.504 3.4688-3.94 1.5675-8.1306 3.5659-9.123 7.5684-0.99375 4.0025 1.208 10.008 0.19922 11.895-1.01 1.8862-5.2309-0.34852-9.1484-1.9785-3.9175-1.6288-7.5285-2.6523-12.791-3.8398s-12.174-2.5373-19.223-2.9961c-7.0488-0.4587-14.233-0.0291-18.98 0.17968-4.7462 0.2087-7.0551 0.19282-7.7363 1.5703-0.68125 1.3762 0.26383 4.1459 0.67383 9.4434 0.41 5.2988 0.28469 13.126 1.2734 18.721 0.9875 5.595 3.0876 8.9597 5.1426 12.443 2.0538 3.4838 4.0602 7.0888 6.3164 8.6113 2.255 1.5225 4.7584 0.96132 8.0371 4.0488 3.2788 3.0862 7.3327 9.82 9.9414 11.656 2.6088 1.8362 3.7716-1.2269 3.9629-4.6094 0.1925-3.3825-0.58797-7.085 2.832-8.9375 3.42-1.8537 11.039-1.8581 16.781-1.4531 5.7412 0.40631 9.604 1.2196 13.303 2.6934 3.6988 1.4737 7.2325 3.6051 2.6562 7.4238-4.5762 3.8188-17.262 9.3249-26.85 14.17s-16.074 9.0294-21.715 10.891c-5.64 1.8612-10.433 1.4008-15.238 0.93945-4.8062-0.4612-9.6257-0.9214-14.314-2.1914-4.6875-1.27-9.2431-3.3497-12.391-4.9434-3.1462-1.5938-4.8816-2.7034-3.4004-3.3008 1.4812-0.5975 6.1771-0.68451 8.7871-1.3457 2.6112-0.6613 3.1377-1.8963 1.834-2.6738-1.3025-0.7788-4.4341-1.0982-7.0078-1.7695-2.5738-0.6725-4.5885-1.6968-6.666-2.793-2.0775-1.0975-4.216-2.2685-6.2598-3.6172-2.045-1.35-3.9956-2.8758-5.7656-4.3633-1.77-1.4875-3.3615-2.9362-5.1152-5.1074-1.7525-2.17-3.6687-5.0648-4.2012-4.3223s0.32023 5.1192 1.084 8.4492c0.76375 3.3299 1.4407 5.6128 2.2207 7.8828 0.78125 2.2712 1.6662 4.5314 2.5938 6.7539 0.92875 2.2212 1.8996 4.405 2.9746 6.5938 1.0762 2.1875 2.2572 4.3797 3.3984 6.3848 1.1425 2.0049 2.2485 3.8234 3.9785 6.0371 1.7312 2.2138 4.0879 4.8238 5.1191 5.0625 1.0312 0.24 0.73641-1.8914-0.18359-4.8027-0.92-2.91-2.464-6.5997-2.1465-7.8809 0.3175-1.28 2.495-0.15203 4.5938 1.1055 2.0988 1.2563 4.1177 2.642 7.1289 4.4394s7.0155 4.0073 11.748 5.6836c4.7325 1.675 10.193 2.8189 16.533 3.1289 6.3388 0.31 13.557-0.21417 19.576-1.293 6.0188-1.0787 10.837-2.7138 18.305-4.6875 7.4675-1.9738 17.583-4.2869 21.898-4.2559 4.3162 0.03 2.8298 2.4051 1.6035 4.6426-1.2262 2.2363-2.1938 4.3362-3.3125 6.4375-1.1188 2.1012-2.3917 4.2023-3.8867 6.0898-1.495 1.8862-3.213 3.559-5.748 4.8477-2.535 1.29-5.8882 2.1969-8.4082 2.2109-2.52 0.0125-4.2073-0.86849-5.5723-3.7422-1.365-2.8738-2.4076-7.7399-3.6113-7.7109-1.2038 0.0275-2.569 4.9489-2.1465 8.2402 0.4225 3.2912 2.6328 4.9508 2.5078 5.9746-0.12625 1.025-2.5878 1.4109-1.2891 3.0547 1.2975 1.6437 6.3517 4.5455 9.9492 6.5605 3.5962 2.0149 5.7333 3.1441 7.957 4.0742 2.2225 0.93 4.5302 1.6614 6.8789 2.2051 2.3488 0.545 4.7373 0.9048 7.1348 1.1973 2.3975 0.2912 4.8052 0.5157 7.209 0.4297 2.4038-0.085 4.8052-0.4788 7.1914-0.8438 2.3862-0.3638 4.7565-0.6962 10.146-2.9512s13.8-6.4292 19.193-9.3379c5.395-2.91 7.7727-4.554 9.6152-5.0078 1.8412-0.455 3.1478 0.27901 3.0391 1.959-0.11 1.6788-1.6349 4.3043-2.4199 6.793-0.785 2.4888-0.82984 4.8405-0.18359 7.1992 0.6475 2.3575 1.9862 4.7223 2.3887 6.7774 0.4025 2.0561-0.13039 3.8036-1.7754 4.9648-0.405 0.285-0.87765 0.5367-1.5976 0.998-2.1038 1.3513-16.448 15.08-18.254 16.809-46.932 44.92-69.644 87.986-68.135 129.2 0.0645 1.7913 0.1187 3.5838 0.0625 5.375-0.015 0.4787-0.16398 0.9663-1.0215 1.9238-1.0425 1.1637-3.1362 3.022-5.0137 4.8633-1.8788 1.8412-3.5413 3.6652-5.2988 5.459-1.7575 1.7937-3.6107 3.556-5.4707 5.291-1.8588 1.7363-3.7264 3.4454-5.6289 5.1192-1.9025 1.6737-3.8418 3.313-5.8418 4.873-2 1.5612-4.0594 3.0435-6.1894 4.416-2.13 1.3726-4.33 2.6332-6.5625 3.8457-2.2338 1.2125-4.5016 2.3779-6.8516 3.3067-2.3488 0.9287-4.7796 1.6219-7.2559 2.2382-2.475 0.6162-4.9932 1.1543-7.502 1.0743-2.5075-0.08-5.0045-0.7784-7.4258-1.5996-2.42-0.8225-4.7652-1.7672-7.0039-2.9434-2.2375-1.175-4.3686-2.5806-6.3711-4.1406-2.0025-1.5613-3.8762-3.2763-5.625-5.1114-1.75-1.8362-3.373-3.7942-4.873-5.8378-1.5-2.0451-2.8759-4.1733-4.1621-6.3633-1.2875-2.1888-2.487-4.439-3.5332-6.7403-1.0462-2.3012-1.9425-4.6552-2.75-7.0527-0.80625-2.3975-1.5269-4.8366-2.1094-7.3066-0.58375-2.47-1.03-4.9694-1.3438-7.4844s-0.49227-5.0453-0.57227-7.584c-0.0812-2.5388-0.0621-5.0866 0.21289-7.6016 0.275-2.515 0.80438-4.9972 1.4219-7.4609 0.6175-2.4638 1.3212-4.909 2.1875-7.2891 0.86625-2.3812 1.8937-4.6965 2.8574-7.039 0.965-2.3424 1.8675-4.7109 2.7812-7.0821 0.91375-2.3713 1.8394-4.7452 2.4844-7.1914 0.645-2.4463 1.0098-4.9633 1.1973-7.4922 0.18625-2.5298 0.19331-5.0729 0.16211-7.6054-0.0312-2.5337-0.10484-5.0585-0.55859-7.582-0.245-1.3614-0.59977-2.7214-0.97852-4.0489 8.9312-5.8288-6.0647-41.985-20.805-27.527 11.575 4.3363 14.664 12.657 9.2676 24.963 2.3188 1.4875 4.3151 2.4333 6.0176 2.9257-0.12375 1.8388-0.31086 3.7751-0.59961 5.6876-0.38875 2.5786-0.96445 5.1115-1.627 7.4277-0.6625 2.315-1.4119 4.4121-2.6719 7.1133s-3.0322 6.008-4.1484 6.3242-1.5759-2.3586-1.4746-4.9199c0.1-2.5624 0.75976-5.0107 1.041-7.5157 0.28-2.505 0.17946-5.0663 0.12695-7.6113-0.0525-2.5463-0.0585-5.0759-0.25976-7.5996-0.20125-2.5238-0.59625-5.0409-1.25-7.4922-0.65375-2.4512-1.5623-4.8388-2.6836-7.1113-1.12-2.2712-2.4496-4.4283-4.0059-6.4395-0.5525-0.7138-1.1324-1.4084-1.7324-2.0859 7.7775-9.6925-30.555-31.062-32.756-9.4238 11.671-4.0662 19.367 0.357 23.086 13.27 2.2662-0.2812 4.1241-0.7075 5.6191-1.25 0.445 0.9251 0.83164 1.8823 1.1504 2.8535 0.7925 2.4263 1.1574 4.9419 1.3574 7.4707 0.19995 2.53 0.23593 5.0722 0.14843 7.6035-0.0875 2.5312-0.30148 5.0492-0.67773 7.5742-0.3775 2.5238-0.91969 5.054-1.6172 7.4278-0.6975 2.375-1.5495 4.5957-2.2383 7.2695-0.6875 2.6725-1.212 5.7992-2.1445 7.2442s-2.2759 1.2071-2.7871-0.4903c-0.51125-1.6988-0.18854-4.8586-0.21484-7.6074-0.0275-2.7475-0.40102-5.0856-0.91602-7.5469-0.3325-1.5975-0.7268-3.2471-1.123-4.8496 10.839-6.655-19.535-39.054-28.211-18.98 12.355-0.3537 18.356 6.1855 18.004 19.619 1.9838 0.3676 3.6966 0.5286 5.1641 0.5176 0.01 1.8787-0.0919 3.8606-0.39062 5.7656-0.39875 2.5375-1.1479 4.9394-2.1504 7.2519-1.0012 2.3125-2.2586 4.5361-3.5586 6.7286-1.2987 2.1925-2.6399 4.353-3.7012 6.6406-1.06 2.2862-1.8397 4.6988-2.4922 7.1601-0.6525 2.46-1.176 4.9697-1.291 7.4922-0.11375 2.5225 0.18305 5.0567 0.56055 7.5742 0.3775 2.5162 0.83734 5.0172 1.3086 7.5098 0.47 2.4925 0.95047 4.9772 1.5742 7.4297 0.6225 2.4512 1.3874 4.8697 2.1074 7.3047 0.72 2.4363 1.3978 4.8876 1.7578 7.3926 0.35875 2.5037 0.40204 5.06 0.23828 7.5937-0.16249 2.535-0.53054 5.049-1.0918 7.5215s-1.3127 4.9028-2.2539 7.2578c-0.9425 2.3563-2.0754 4.637-3.3691 6.8145s-2.7503 4.2501-4.3203 6.2539c-0.23375 0.3-0.47094 0.5983-0.71094 0.8945-1.0938-0.6125-2.3837-1.2102-3.8887-1.7852-6.7025 11.646-15.233 14.099-25.592 7.3555-2.8438 20.114 33.891 11.351 34.5 0.9238 0.36625-0.2187 0.72914-0.4418 1.0879-0.6718 2.2925-1.4775 4.421-3.2198 6.291-5.1973 1.8712-1.9775 3.4847-4.1943 4.8984-6.5293s2.6292-4.79 3.5117-7.375c0.88375-2.585 1.4365-5.3001 2.459-7.7988 1.0212-2.4975 2.5153-4.7812 3.6641-4 1.15 0.7825 1.9548 4.6303 2.7285 7.6953s1.5135 5.3474 2.291 7.8437c0.7775 2.4975 1.5901 5.2096 2.2051 7.8946 0.61625 2.6863 1.0351 5.3472 1.6426 7.9922 0.6075 2.6463 1.4051 5.2757 2.1426 7.9082 0.73875 2.6313 1.4176 5.2638 2.1914 7.875 0.77375 2.61 1.643 5.198 2.5742 7.7617 0.93125 2.565 1.9234 5.1041 3.0059 7.6055 1.0825 2.5011 2.2522 4.9645 3.5234 7.3808 1.2712 2.415 2.6434 4.7822 4.2109 7.0059 1.5662 2.225 3.3265 4.3072 5.1152 6.3672s3.6039 4.0989 5.4414 6.1152c1.8375 2.0162 3.6988 4.0086 5.5312 6.0273 1.8325 2.0188 3.6355 4.0625 5.3867 6.1563 1.75 2.0937 3.447 4.2381 5.002 6.4668 1.5538 2.2288 2.9652 4.5434 4.3652 6.9121 1.4012 2.3688 2.7912 4.7907 3.5137 7.3769 0.72375 2.5863 0.78049 5.337 0.84179 8.0957 0.0613 2.7588 0.1268 5.5256-0.2832 8.1719-0.41125 2.645-1.2985 5.1697-2.666 7.6934-1.3688 2.5225-3.2173 5.0456-4.0273 7.1094-0.81125 2.0637-0.58391 3.6686 0.87109 3.2011 1.4562-0.4675 4.1378-3.0074 6.3203-5.1836 2.1825-2.1763 3.8625-3.9907 5.4375-6.0957 1.5762-2.105 3.0473-4.5003 4.2461-6.9765 1.1975-2.475 2.1234-5.0308 2.8809-7.6446 0.75875-2.6137 1.3488-5.2856 1.6426-7.3144 0.2925-2.0287 0.28711-3.4126 0.69336-5.0801 1.6238-6.6712 9.8262-17.876 15.969-20.184 1.5362-0.5763 2.9424-0.5987 4.9824-0.8262s4.714-0.6616 7.3652-1.2578c2.6512-0.5975 5.2799-1.3568 7.8887-2.1543 2.6075-0.7988 5.1955-1.634 7.7617-2.584 2.565-0.9512 5.1075-2.0153 8.5-3.4003 3.3912-1.385 7.6309-3.0909 10.648-9.6797 3.0175-6.5887 4.8124-18.064 5.9336-18.205 1.1213-0.1412 1.5674 11.049 1.5449 18.205-0.0213 7.1563-0.51352 10.278-0.82227 13.144-0.30875 2.8675-0.43389 5.4798-0.66016 8.1523-0.225 2.6738-0.55046 5.4063-0.88671 8.125-0.33625 2.7175-0.68133 5.423-1.0801 8.1192-0.3975 2.6963-0.84938 5.3833-1.3281 8.0683-0.4775 2.685-0.97961 5.3667-1.5059 8.043-0.525 2.675-1.0752 5.345-1.6465 8.0137-0.57 2.6688-1.1622 5.336-1.7734 7.9922-0.61125 2.6563-1.2423 5.3002-1.916 7.9414-0.675 2.6413-1.3916 5.2782-2.1191 7.9082-0.7275 2.6288-1.4657 5.2515-2.2832 7.8515-0.81875 2.6-1.7184 5.1763-2.5059 7.7813-0.7875 2.6038-1.462 5.2365-2.3457 7.8027-0.88375 2.5675-1.9762 5.0685-2.9688 7.6075-0.9925 2.5385-1.884 5.1131-2.834 7.6718-0.94875 2.5588-1.9538 5.102-2.9551 7.6406-1.0012 2.5377-1.9985 5.0717-3.0723 7.5879-1.0725 2.5175-2.2215 5.0166-3.209 7.5254-0.9875 2.5087-1.8109 5.0279-2.6484 7.6016-0.8375 2.575-1.6864 5.2049-2.9414 7.6074-1.255 2.4038-2.9153 4.5808-4.4766 6.8145-1.56 2.2338-3.0217 4.5262-4.418 6.875-1.3975 2.3487-2.7291 4.7551-3.9453 7.1601s-2.3153 4.8076-3.4766 7.2364c-1.1612 2.4287-2.385 4.8805-3.9375 7.1093-1.5525 2.2287-3.4341 4.2336-5.5078 6.0274-2.075 1.7937-4.3414 3.3791-6.8477 4.4453-2.5062 1.0675-5.2519 1.6177-7.9219 1.3789-2.67-0.2387-5.2627-1.268-7.8652-2.1816-2.6025-0.9152-5.2134-1.7137-7.5059-3.0274-2.2912-1.3125-4.2638-3.1377-6.4375-4.7402-2.1725-1.6012-4.5467-2.9799-6.8867-4.4024-2.3412-1.4225-4.647-2.8911-7.1758-3.7636-1.2912-0.445-2.6402-0.7342-4.0215-0.9454-0.53875-3.655-7.1101-5.57-14.893-5.541-1.0438 0-2.1086 0.042-3.1836 0.1172-12.156 0.8388-25.619 6.2058-23.629 16.814 12.508-9.6325 22.835-9.7881 30.98-2.5469l6.6348-2.2656c1.995 0.755 3.9348 1.555 5.8848 2.33 2.5062 0.9975 5.0292 1.9543 7.2617 3.6231 2.2312 1.6687 4.1721 4.0482 6.7871 6.1719 2.6138 2.125 5.9006 3.9921 4.2344 6.9746-1.6675 2.9813-8.2891 7.0769-11.682 9.1269-3.3925 2.0482-3.555 2.0506-3.7188 2.0606s-0.32578 0.02-0.48828 0.035c-0.16375 0.015-0.32703 0.032-0.48828 0.055-0.1625 0.021-0.32313 0.046-0.48438 0.074-0.16125 0.029-0.32242 0.058-0.48242 0.09-0.16 0.034-0.31852 0.068-0.47852 0.1074-0.15875 0.038-0.3171 0.078-0.4746 0.1191-0.15875 0.042-0.31711 0.085-0.47461 0.129-0.15625 0.045-0.31446 0.092-0.47071 0.1386-0.15625 0.047-0.3125 0.095-0.46875 0.1446-0.15625 0.05-0.30984 0.1013-0.46484 0.1523s-0.30984 0.1013-0.46484 0.1543-0.30985 0.1052-0.46485 0.1602c-0.15375 0.055-0.30844 0.1119-0.46094 0.1679-0.1525 0.057-0.30453 0.1158-0.45703 0.1758-0.15125 0.06-0.30453 0.1226-0.45703 0.1836-0.15125 0.061-0.30117 0.1235-0.45117 0.1875-0.15125 0.062-0.30312 0.1284-0.45313 0.1934-0.14999 0.064-0.29726 0.1283-0.44726 0.1933-0.15 0.066-0.30242 0.1332-0.45117 0.1992-0.0288 0.013-0.0565 0.026-0.084 0.039-10.669-4.7162-40.94-0.3849-37.996 15.143 8.2975-6.4162 15.64-8.6385 22.025-6.666 1.0662 0.3287 2.1047 0.7734 3.1172 1.3359 2.0325 1.13 3.9559 2.7315 5.7734 4.8027 2.1175-1.1775 3.8824-2.2967 5.3262-3.3554 32.121-11.262 37.901-2.0211 53.625 1.7089 8.19 1.9425 19.076 2.39 26.232 0.1075 12.154-3.8762 13.55-15.63 29.541-7.5196 0.71125 0.8 1.5383 1.6551 2.4883 2.5664 3.66-2.4713 7.2687-3.3481 10.826-2.6269 0.33 0.068 0.65758 0.1491 0.98633 0.2441 3.83 1.0975 7.5998 4.0563 11.309 8.875 6.325-13.3-26.445-23.919-29.049-16.656-6.245-1.2075-15.711-3.0474-17.506-8.6074-1.795-5.5613 4.0794-14.842 10.953-24.588 6.8725-9.7475 14.742-19.961 24.117-31.055 9.375-11.094 20.254-23.067 27.547-22.457 7.2938 0.6102 11 13.802 12.855 14.471 1.8538 0.67 1.8555-11.184 1.8418-21.893-0.0125-10.708-0.0417-20.271 2.6445-33.961 2.685-13.69 8.085-31.506 14.062-31.029 5.9775 0.4763 12.531 19.245 16.406 33.191 3.8762 13.946 5.0741 23.069 9.8691 15.539 4.7962-7.53 13.191-31.714 17.549-35.385 4.3588-3.6725 4.6809 13.164 8.3047 11.766 3.6238-1.4 10.55-21.036 17.812-31.393 7.2625-10.355 14.863-11.428 20.594-4.7715 5.7313 6.6575 9.5957 21.044 11.242 19.27 1.6449-1.775 1.0736-19.713 8.7011-28.225 7.6263-8.5125 23.451-7.5979 37.117-7.5879 13.668 0.01 25.175-0.8841 34.92 0.8809 9.7437 1.7638 17.725 6.1861 19.045 8.6523 1.3187 2.4663-4.022 2.9763-19.113 9.9688-15.092 6.9913-39.936 20.467-55.016 42.35-15.079 21.882-20.392 52.174-9.0937 78.721 11.298 26.546 39.209 49.346 79.924 59.607 40.716 10.261 94.234 7.9836 129.5-14.629 35.264-22.612 52.274-65.56 49.326-101.66-2.9475-36.095-25.851-65.341-36.297-80.393-10.446-15.051-8.4351-15.909-1.5664-18.84 6.8675-2.93 18.593-7.9331 29.148-14.064 10.556-6.1312 19.941-13.39 29.848-22.117 9.9075-8.7275 20.337-18.924 25.488-19.934 5.15-1.0088 5.0217 7.1674 7.3067 20.527 2.2862 13.36 6.9862 31.904 8.5312 27.139 1.5463-4.7637-0.064-32.836 4.3418-57.91 4.405-25.072 14.828-47.146 11.705-51.106-3.1237-3.96-19.788 10.195-42.867 20.33-23.078 10.136-52.568 16.251-49.723 18 2.845 1.7488 38.023-0.8699 46.06 4.0976 8.0375 4.9662-11.066 17.519-25.629 26.184-14.564 8.665-24.586 13.44-35.635 16.143-11.048 2.7025-23.121 3.3308-30.348 3.707-7.2263 0.3763-9.6061 0.4994-14.197-4.0781-4.5925-4.5775-11.398-13.855-22.172-28.32-10.774-14.465-25.515-34.115-33.188-28.303-7.6737 5.8137-8.2773 37.09-10.965 39.272-2.6862 2.1812-7.4537-24.734-1.8574-39.295 5.5975-14.561 21.56-16.768 36.5-12.717 14.94 4.0512 28.859 14.36 36.059 17.994 7.1988 3.6337 7.6786 0.592 4.4199-9.0567-3.2575-9.65-10.255-25.907-8.1777-39.383 2.0762-13.476 13.227-24.173 25.357-26.012 12.13-1.8388 25.242 5.1784 38.088 13.193 12.845 8.0162 25.426 17.029 25.027 13.469-0.4-3.5612-13.781-19.692-20.27-35.17-6.4888-15.478-6.0863-30.3 2.2636-38.049 8.3489-7.75 24.644-8.4277 38.543-7.6289 13.899 0.7987 25.401 3.0735 22.516-2.1289-2.885-5.2027-20.157-17.882-25.863-30.637-5.7075-12.756 0.1529-25.587 13.762-33.057 13.61-7.47 34.969-9.581 37.857-12.166 2.8888-2.5838-12.694-5.6419-26.955-10.797-14.261-5.1563-27.2-12.408-31.973-23.324-4.7713-10.918-1.3743-25.498 8.9394-36.623 10.314-11.124 27.545-18.788 33.156-23.203 5.6125-4.4162-0.3968-5.5829-12.061-8.0117-11.664-2.43-28.982-6.1217-36.902-15.637-7.9208-9.515-6.4412-24.852 0.018-37.391 6.4575-12.54 17.893-22.284 26.707-30.545 8.2617-7.7437 14.217-14.185 10.213-14.418zm-458.42 97.459c12.304 2.3325 25.559 2.6227 39.768 0.86524-12.561 6.9125-18.155 14.925-24.244 15.707s-12.671-5.6647-15.523-16.572zm262.08 454.34c1.932 0.011 3.7543 0.4428 5.4141 1.3809 5.3113 3.001 8.9618 11.181 10.672 18.469 1.7117 7.2887 1.4809 13.684-0.057 20.09-1.5388 6.4049-4.3827 12.818-9.0527 17.707-4.67 4.8876-11.166 8.251-17.836 8.8711-6.67 0.62-13.514-1.5014-18.943-5.6914-5.4287-4.19-9.4397-10.452-9.9922-16.973-0.5538-6.5225 2.352-13.306 7.2558-20.203 4.9025-6.8975 11.801-13.908 18.736-18.502 4.7669-3.1582 9.5523-5.1727 13.803-5.1484z"/>
  </g>
</svg>
