<?xml version="1.0" encoding="UTF-8" standalone="no"?>
<!-- Created with Inkscape (http://www.inkscape.org/) -->

<svg
   xmlns:dc="http://purl.org/dc/elements/1.1/"
   xmlns:cc="http://creativecommons.org/ns#"
   xmlns:rdf="http://www.w3.org/1999/02/22-rdf-syntax-ns#"
   xmlns:svg="http://www.w3.org/2000/svg"
   xmlns="http://www.w3.org/2000/svg"
   xmlns:xlink="http://www.w3.org/1999/xlink"
   xmlns:sodipodi="http://sodipodi.sourceforge.net/DTD/sodipodi-0.dtd"
   xmlns:inkscape="http://www.inkscape.org/namespaces/inkscape"
   version="1.0"
   width="1138.4185"
   height="1186.6796"
   id="svg3555"
   inkscape:version="0.48.2 r9819"
   sodipodi:docname="Wappen_Wurmlingen.svg">
  <metadata
     id="metadata3814">
    <rdf:RDF>
      <cc:Work
         rdf:about="">
        <dc:format>image/svg+xml</dc:format>
        <dc:type
           rdf:resource="http://purl.org/dc/dcmitype/StillImage" />
      </cc:Work>
    </rdf:RDF>
  </metadata>
  <sodipodi:namedview
     pagecolor="#ffffff"
     bordercolor="#666666"
     borderopacity="1"
     objecttolerance="10"
     gridtolerance="10"
     guidetolerance="10"
     inkscape:pageopacity="0"
     inkscape:pageshadow="2"
     inkscape:window-width="1280"
     inkscape:window-height="969"
     id="namedview3812"
     showgrid="false"
     showguides="true"
     inkscape:guide-bbox="true"
     inkscape:zoom="0.64128516"
     inkscape:cx="383.64436"
     inkscape:cy="593.33978"
     inkscape:window-x="-2"
     inkscape:window-y="-3"
     inkscape:window-maximized="1"
     inkscape:current-layer="svg3555" />
  <defs
     id="defs3557">
    <clipPath
       id="clipPath223">
      <path
         d="m 404.161,505.122 0,-166.41 155.181,0 0,166.41"
         id="path225" />
    </clipPath>
    <style
       type="text/css"
       id="style2837" />
    <clipPath
       id="clippath">
      <path
         d="m 360,4140 c 0,1789.4026 1450.5974,3240 3240,3240 1789.4026,0 3240,-1450.5974 3240,-3240 l 0,-3870 -6480,0 0,3870 z"
         id="path2835-5" />
    </clipPath>
    <clipPath
       id="clipPath3725">
      <path
         d="m 404.161,505.122 0,-166.41 155.181,0 0,166.41"
         id="path3727" />
    </clipPath>
    <pattern
       id="pattern8352"
       patternTransform="translate(70,0)"
       height="4"
       width="4"
       patternUnits="userSpaceOnUse">
      <g
         transform="translate(-64,0)"
         id="g8348">
        <rect
           y="0"
           x="64"
           height="5"
           width="5"
           id="rect5703"
           style="opacity:1;fill:#000000;fill-opacity:1;fill-rule:evenodd;stroke:none;stroke-width:1;stroke-linecap:round;stroke-linejoin:round;stroke-miterlimit:0;stroke-dasharray:none;stroke-dashoffset:0;stroke-opacity:1" />
        <rect
           y="0"
           x="64"
           height="3"
           width="3"
           id="rect4828"
           style="opacity:1;fill:#ffffff;fill-opacity:1;fill-rule:evenodd;stroke:none;stroke-width:1;stroke-linecap:round;stroke-linejoin:round;stroke-miterlimit:0;stroke-dasharray:none;stroke-dashoffset:0;stroke-opacity:1" />
      </g>
    </pattern>
    <pattern
       patternTransform="translate(2,3)skewY(45)"
       id="pattern8359"
       xlink:href="#pattern8352"
       inkscape:collect="always" />
  </defs>
  <g
     id="g5423"
     transform="matrix(-1.0533897,0,0,1.0490451,1191.7758,-2.1565639)">
    <path
       d="M 975.8313,112.94108 C 948.0686,94.89248 999.6001,53.5723 956.7596,51.31952 937.081,50.29901 924.4397,84.95714 906.4051,101.5962 L 837.97,138.80307 c -27.5451,11.67654 -4.4124,20.07611 -34.871,30.94582 -21.0173,6.3247 -45.4521,-3.61803 -59.3021,36.82478 -0.579,11.66551 -15.4737,28.35299 -9.325,-1.58219 5.8477,-19.361 15.5515,-29.78632 26.2909,-35.70854 28.5447,-15.741 61.2157,8.79749 54.627,-35.01805 -6.8371,-9.26428 -14.0136,-12.16098 -21.3991,-11.13615 -14.1029,1.95698 -25.1214,19.80411 -43.6876,31.73724 -4.9586,2.20683 -9.259,4.77427 -12.1834,5.88267 -11.3465,4.3005 -9.8811,-2.12151 -4.8252,-5.72458 17.2028,-10.866 24.6075,-17.17471 21.1044,-20.03588 -8.3215,-11.85571 -12.1511,-32.44064 -16.4007,-52.20914 -11.9696,11.57221 -20.7891,21.2502 -27.3043,32.11444 -4.9904,8.32149 -5.4494,16.92229 5.5489,26.22935 7.8111,19.38653 -5.7075,11.60597 -13.0136,1.39502 -7.9758,-13.29821 -17.9294,-24.66416 -15.9586,-47.68068 -39.8607,45.36836 -46.6948,86.7227 -24.6317,124.56492 20.4634,14.71553 -34.6847,3.04334 -24.005,43.15546 0.3805,6.71054 -6.2301,13.99479 -6.5245,21.83362 -0.3184,8.47694 1.3263,17.53949 4.1685,26.95925 2.0502,13.96475 -7.7315,20.21085 -7.7248,31.65723 0,7.38282 2.488,15.62416 10.1701,25.66563 3.275,8.89632 -2.5923,17.0597 -0.8764,24.49975 1.6403,7.11242 12.1777,17.45181 11.2557,23.66334 -1.8551,8.95068 -1.2866,13.58797 0.5686,23.04621 1.6632,8.48039 10.3478,12.83414 13.4195,21.66496 1.7773,5.10933 -3.7348,11.65459 -2.7519,21.49054 0.777,7.77507 7.7017,12.35561 9.8353,19.60486 -10.4551,18.38429 11.0786,24.83302 -9.1013,39.52031 -20.5263,6.27346 -52.4124,-2.5605 -64.3619,-8.58921 -15.7385,-7.94033 -22.2594,-20.69572 -28.8824,-33.60202 -7.5993,-14.80849 -7.0641,-33.99437 3.7068,-58.68841 C 584.0315,377.57 634.0609,362.19598 614.7888,271.67057 596.3217,184.92635 521.3041,98.75119 475.1156,43.54454 c 0.9326,32.36983 11.2493,63.99174 -9.0441,90.30716 -0.011,1.82925 3.403,5.26079 4.911,6.90162 51.163,55.6689 83.8369,99.06446 99.5906,152.4644 15.768,53.44848 -3.7248,107.17236 -18.1111,168.9227 -4.395,9.91156 -6.3108,3.79901 -8.5692,-0.0995 18.3325,-81.2698 41.7031,-116.52453 2.1023,-206.31981 C 524.1824,206.26042 472.0525,152.19431 439.8399,126.69914 404.2727,98.5491 367.4196,81.70621 328.3965,67.48591 c -13.3266,-5.70852 -10.0162,-1.92002 -7.8586,1.21046 16.4567,37.56177 21.8433,64.65137 21.5909,86.40641 -0.4055,34.96 -13.2214,72.93318 -22.3662,84.87267 -3.5262,9.55836 -17.8069,20.04792 -8.1146,19.89406 90.4106,4.4722 142.5759,41.94449 172.8741,70.50255 6.0478,6.51897 6.4581,9.87734 5.9412,11.14877 -0.3263,0.80291 -2.6143,-0.31454 -8.6932,-5.14334 -23.3973,-23.81769 -56.3686,-38.76315 -82.3384,-49.76055 -28.3653,-12.01187 -50.1619,-18.13441 -81.2002,-21.28625 -11.4186,-0.75848 -18.1677,-0.69258 -12.7501,5.86913 10.481,20.30935 14.1315,44.56362 14.3819,63.68757 0.6019,45.98087 -25.2079,74.30813 -12.5243,69.17336 42.9164,-14.34513 88.8975,-17.88826 138.6838,-8.01972 3.7677,1.63186 9.593,3.42047 9.4329,4.75311 -0.1084,0.9019 -1.3017,3.2906 -11.0433,1.88921 -21.0176,-2.07839 -41.0351,-5.02511 -65.6099,-4.01467 -18.3243,0.75346 -37.4909,2.38561 -63.1869,9.54006 -10.4521,2.76247 -16.2667,6.93463 -12.6589,10.41282 11.6589,21.28763 15.2918,42.14186 15.5268,62.77216 0.8172,71.72585 -18.9598,97.53206 -14.3856,94.65449 59.8887,-67.60607 112.0768,-82.09966 155.2026,-93.96011 20.3028,-2.19373 26.5658,0.64931 27.7526,1.3445 1.9261,1.1282 -12.2376,2.74926 -17.422,4.09528 -100.5823,26.14255 -137.3964,68.85263 -170.7978,104.55735 44.9563,-15.44832 95.1891,-36.12103 153.4586,-31.09401 26.2924,2.26829 53.1234,10.23414 80.1252,27.1933 7.6041,4.98059 14.3204,9.86622 3.5387,12.88021 -31.5721,-21.09233 -60.9053,-30.49744 -88.5392,-28.86273 -58.7097,3.473 -110.2308,54.24891 -160.5799,90.14174 -50.9407,29.12189 -74.5403,4.81879 -84.511,-30.31675 -9.9698,-35.13219 -1.9792,-83.079 12.4002,-126.49863 24.9239,-113.62921 105.4353,-236.32649 28.9599,-329.41919 0.5102,-11.47424 25.9963,-20.44888 36.9502,-40.99541 8.8607,-16.62039 13.1552,-31.57909 16.7655,-46.90944 -56.0815,19.56982 -115.505,31.93809 -202.4132,-14.91756 51.4239,56.53502 64.2989,132.2322 65.5114,200.92428 22.4779,-12.84927 29.6949,-29.52964 46.9912,-66.90472 62.9239,132.97795 -72.8226,230.89544 -64.1156,400.05427 2.4222,46.6859 33.7218,126.3617 98.4697,131.90752 37.1214,6.12631 79.4248,-36.55343 107.4982,-41.30193 2.8173,23.77136 9.8369,47.8627 4.2525,71.26533 -5.8463,24.50025 -20.0603,38.60023 -28.8541,50.7025 -16.7101,26.90294 -37.867,36.49591 -50.4613,44.69281 -10.9102,7.10082 -11.2739,13.20179 -4.9958,28.50504 10.6523,75.88281 -21.1816,97.33029 -12.1514,122.04434 12.224,19.32 28.6449,-1.3832 24.7643,18.6697 4.3454,8.2813 -2.0658,21.7856 15.343,23.7235 40.1333,2.913 47.658,21.6599 67.9706,34.1973 1.2622,-5.4465 2.5179,-10.3263 3.8833,-24.6519 3.9892,-8.6764 12.0721,-0.088 30.5683,17.1659 l 4.8552,-19.7263 c 6.2365,-9.2498 23.0592,16.6901 22.6895,7.3991 4.8589,-15.6057 4.5483,-27.681 -0.9837,-36.0413 -10.6419,-16.0828 -8.5666,-35.94029 -26.2685,-35.8781 -31.0129,0.1091 -41.8415,-1.04276 -41.318,-13.18918 -0.598,-18.9953 0.3312,-37.20464 4.9395,-53.52075 4.0821,-14.45303 11.0511,-27.42051 22.4025,-38.1328 72.956,-48.08104 118.6992,-129.65712 137.167,-171.31598 5.918,-16.02891 23.4493,-32.83867 12.3054,-0.77444 -20.6364,36.78531 -36.6143,71.26679 -58.6935,98.72924 -22.1228,27.51661 -44.9661,50.37747 -68.5224,68.63084 7.9949,40.16281 -11.5245,46.82127 -6.0171,61.98223 2.038,5.6101 6.6918,9.30539 15.7231,9.79619 -1.034,14.63689 -0.7871,45.71315 20.6108,46.04945 22.2287,6.4986 59.9961,-2.4006 69.9224,6.398 l 9.8456,16.1677 c 6.4806,4.4829 13.4063,-29.3892 19.7538,-13.4348 4.7459,8.9651 9.6815,1.5837 14.5874,-3.2404 1.9016,-10.7611 6.4732,-11.7492 12.318,-8.077 4.9402,-18.30233 6.6593,-34.91812 -14.9927,-39.29724 -6.2686,-25.48963 -54.462,-7.35061 -60.9245,-28.41336 -3.3704,-21.51533 -11.6481,-45.20161 -1.6368,-60.7972 23.7226,-30.50307 34.1091,-54.5305 50.4817,-81.4646 6.6002,-6.49846 -8.0268,-7.19764 -14.4257,-10.14476 -6.605,-5.13859 -15.3168,-10.10258 4.1212,-10.06868 27.9579,12.97425 83.5562,40.16801 86.2157,35.84922 l 27.5667,-32.42079 c 14.7751,-14.99839 17.0065,-13.30145 8.7544,2.3486 -9.8466,14.59404 -29.4334,29.07503 -28.2604,43.79697 16.5475,22.82014 17.7807,65.57301 15.6757,112.67077 -11.2969,38.26415 -35.7777,32.60685 -37.9114,53.66078 2.5058,31.53709 26.5594,3.58186 20.7313,23.75269 -2.6246,23.5975 -0.6985,40.9776 7.146,50.2723 23.5334,-0.3771 78.1761,12.1103 70.5556,-1.1497 -5.4615,-27.167 -7.046,-46.3498 -2.4786,-52.8634 12.4612,11.9263 1.0161,48.4629 22.0716,47.6125 l 34.3181,-2.6938 c -15.0127,-21.5033 -15.8248,-60.58567 -26.6653,-67.04911 -22.5275,-11.5186 -15.8015,-30.19856 -15.3873,-38.69066 l 7.7818,-113.65461 c 15.3413,-48.62082 47.092,-45.75834 61.6453,-93.08487 1.3554,-10.12803 16.2991,-33.9517 11.6921,-2.53891 -1.6559,21.36041 -34.0264,50.09467 -43.9775,71.35881 -4.1764,8.92479 -5.3725,17.88418 -1.2158,26.90568 6.8789,23.4919 6.0999,40.33476 0.8095,58.3168 -3.8432,13.06368 -9.7566,21.98521 -13.5967,28.95683 -5.866,10.64958 -3.1287,25.29627 11.6824,26.11307 1.9957,8.47458 22.7678,-13.67115 17.7636,8.88331 -0.6974,15.89458 -3.2799,28.28766 9.8161,42.37486 5.4641,5.1818 79.1268,21.4557 71.4321,8.1369 l -5.0068,-34.83462 c 4.6927,-2.38993 8.7557,0.85632 11.1591,18.95565 5.4325,1.03768 26.7298,2.7334 28.2559,-0.79554 -10.8271,-27.94319 -8.5045,-56.52371 -23.1995,-61.351 -23.4875,-7.71566 -41.7509,-16.40767 -41.7686,-37.48611 L 824.667,787.79572 c 1.6952,-10.49307 -2.3587,-13.12485 -3.9255,-17.68874 -1.3469,-3.92338 -3.1869,-5.30272 -6.2995,-0.11632 -15.0759,10.67255 -31.3848,14.60747 -24.9303,7.87861 1.351,-1.40843 3.4966,-3.3203 6.5294,-5.79435 10.596,-7.84399 19.8512,-15.25827 18.2136,-19.18154 l -3.1557,-18.93486 c -2.0685,-23.81108 5.6359,-12.26706 5.9286,-2.38946 10.9094,43.92467 36.9591,51.23665 64.5674,54.7796 -38.9928,-47.65369 -16.4328,-104.84665 -25.8696,-125.78493 0.2438,-8.23292 -2.1362,-21.18395 13.5776,-1.59977 1.8153,27.34409 -4.9642,48.70072 -0.598,69.19172 3.8317,17.983 12.1013,33.46503 27.2351,45.07872 -8.4074,-47.51073 14.3579,-55.08771 20.0622,-96.8743 1.2368,-9.06007 1.7742,-19.18205 1.2041,-30.837 -5.6726,-18.25162 -7.5061,-31.72497 -7.1082,-42.57998 0.6022,-16.43109 10.1277,-22.18047 11.5673,-38.78662 9.2115,-55.85632 -35.1614,-96.69494 -58.6648,-139.74252 -26.9714,-36.41954 0.2758,-51.50557 -14.055,-51.7876 -80.3301,4.51187 -83.3803,-7.71094 -102.8274,-14.82469 -14.7162,-14.98542 -22.9638,-34.28735 3.218,-10.85219 58.9369,26.82766 90.1746,4.84824 135.186,18.25531 26.7453,7.96638 52.7146,20.446 77.3713,40.56103 9.1557,3.60846 7.1119,-21.14138 3.7552,-45.13276 3.2687,-5.72589 -2.5045,-7.95621 -9.4418,-9.73647 l -2.088,-29.53366 c 1.0477,-13.67922 -18.1153,10.72143 -22.5021,7.96712 -4.9294,-3.09496 3.887,-27.69694 -7.5425,-21.53214 -9.5542,6.26868 -14.9458,8.47033 -21.0603,11.37828 -4.8825,-9.53808 0.1269,-32.63486 -9.8327,-22.69084 -8.6796,9.43446 -16.6245,12.20835 -18.2515,9.24602 -0.8136,-5.92351 2.874,-18.68867 -3.1074,-15.25562 -9.523,1.36614 -19.1155,8.71878 -28.5537,2.77693 -16.4625,-3.89676 -11.5756,-7.54571 -12.7311,-11.26481 21.8157,-4.35062 42.7955,-6.33619 62.9281,-3.45151 80.7435,11.56923 81.6996,115.72019 160.7399,52.02442 6.8957,-5.557 24.4799,-51.28517 14.8763,-41.59362 -16.3981,16.54808 -34.7621,17.31492 -42.0436,18.26495 -10.8436,1.41479 -9.0085,-5.4742 -4.5625,-6.85489 38.705,-16.07631 58.6033,-38.98098 56.2593,-69.9614 0.4889,-6.67239 -9.9844,6.69678 -22.7363,10.56546 -7.1831,2.17919 -8.3741,4.68025 3.6955,-9.6444 10.3208,-12.24907 18.9513,-49.04958 18.7073,-59.52242 -0.4138,-17.75765 13.3355,-33.24076 6.9325,-31.74687 -16.5567,-3.73508 -41.0672,37.45864 -48.0468,40.30138 -4.3379,-50.87611 33.2892,-58.88977 29.3879,-121.73847 -10.8697,23.08232 -52.1974,26.87901 -67.9085,49.66511 -26.8569,38.95107 -8.7938,66.6413 -66.4105,94.28232 -18.5745,13.72444 -66.291,21.03694 -102.4054,39.43515 -4.169,4.26355 -7.0037,3.3331 -2.7387,-4.91259 5.7606,-10.61528 11.4988,-19.28788 17.1564,-21.02584 7.7524,-14.07523 15.1698,0.70694 22.731,3.10309 l 9.1116,-19.56415 c 4.3146,-10.32503 14.2391,8.69989 17.2955,2.23508 l 9.4742,-28.90686 c 6.5605,10.22203 14.2043,23.05537 15.0175,19.42508 7.2375,-15.82487 15.7429,-38.19152 18.8578,-32.7478 5.1752,5.5667 12.896,17.26895 12.5397,9.50365 L 961.9671,132.496 c 3.8193,-5.75457 17.6704,-8.30057 13.8642,-19.55489 l 0,-3e-5 z"
       id="path2838"
       style="fill:#804000;fill-opacity:1;stroke:#231f20;stroke-width:1px;stroke-linecap:butt;stroke-linejoin:miter;stroke-opacity:1"
       inkscape:connector-curvature="0" />
    <path
       d="m 819.3763,261.35652 c 45.3864,-34.81005 94.1476,-32.54448 129.526,-55.71647 24.4924,-16.04197 36.2911,-35.62757 45.9939,-68.57013 6.193,-25.14966 19.6867,-34.03667 54.09,-51.97635 4.3254,-4.44212 6.9263,-3.90409 7.5586,2.31875 -4.2023,26.06369 -21.2865,36.16133 -26.2223,55.71413 -4.0035,15.8592 -0.5716,29.83226 -11.5273,46.68709 -10.4654,16.10024 -21.5545,28.17326 -38.2995,29.68499 -5.5899,6.21782 20.7696,1.76523 29.6349,-3.89085 5.3821,-3.4337 12.4531,-6.83025 20.7914,-13.67316 11.909,-9.77342 21.2022,-21.73798 32.7783,-39.03062 7.5115,-8.45351 9.9214,-7.6906 8.9332,-0.78872 -9.9182,21.12555 2.8504,47.43988 -34.7206,75.87238 -18.7524,19.78632 -44.486,-6.44868 -74.6917,8.97514 37.1361,-2.28382 51.7926,12.99046 69.8835,12.04541 9.2182,-0.48155 18.707,-3.38345 28.6988,-9.56259 1.6711,1.12005 7.7096,-5.64985 1.6758,9.38974 -15.6767,22.77801 -29.0464,31.61177 -40.9257,34.69277 -23.8265,6.17962 -46.5945,-23.75026 -52.1364,-13.01649 24.7378,11.77012 20.4593,32.61496 45.3585,37.72782 10.2939,2.1138 21.4815,1.40535 34.5902,-6.0118 7.8952,0.0866 5.1006,4.30534 1.2348,8.93843 -66.8521,60.45 -76.4995,-39.94449 -160.4436,-49.37523 -22.6817,-2.54818 -53.6733,2.3229 -68.8494,6.10933 -5.7551,1.0915 -6.1887,-5.78691 -7.234,-8.65658 -0.9677,-2.65688 -0.1253,-5.29274 4.3026,-7.88699 z"
       id="path2840"
       style="fill:#ff0000;fill-opacity:1;stroke:#231f20;stroke-width:1px;stroke-linecap:butt;stroke-linejoin:miter;stroke-opacity:1"
       inkscape:connector-curvature="0" />
    <path
       d="m 754.589,208.22081 c -2.0713,-0.95988 -4.1826,-2.01407 -5.2753,-0.6645 -0.8425,1.04069 -2.3557,3.81404 -0.2254,8.55536 14.4602,19.09451 33.7623,16.56298 43.2967,10.41774 9.5552,-6.15863 23.965,-23.83101 14.0686,-45.70719 -8.922,-7.73332 -12.2343,-5.33514 -14.7145,-4.78734 -1.3806,0.3049 -1.049,2.12339 2.5991,6.87404 6.3529,16.37891 3.7385,26.36536 -8.8819,35.25743 -7.1899,5.0658 -23.2468,2.93265 -30.8673,-9.94554 z"
       id="path2846"
       style="fill:#ffffff;stroke:#231f20;stroke-width:1px;stroke-linecap:butt;stroke-linejoin:miter;stroke-opacity:1"
       inkscape:connector-curvature="0" />
    <path
       d="m 777.1288,185.25468 c -0.5862,-2.56176 -0.1424,-3.93734 0.986,-4.52452 1.4505,-0.75486 4.051,-1.79752 7.012,0.79909 3.4249,5.3793 3.47,9.53921 2.6897,14.98607 -0.2288,4.9322 -2.027,3.26247 -3.8362,1.54642 l -6.8515,-12.80706 z"
       id="path2848"
       style="fill:#ffffff;stroke:#231f20;stroke-width:1px;stroke-linecap:butt;stroke-linejoin:miter;stroke-opacity:1"
       inkscape:connector-curvature="0" />
    <path
       d="m 857.0533,202.36812 c 4.1783,5.13368 8.8828,12.25069 10.4379,7.49745 3.7811,-10.5634 5.4671,-16.77015 5.1303,-18.77031 -1.2219,-2.51366 -6.0842,-0.49463 -10.3753,4.15939 -2.9728,3.22425 -6.037,5.3703 -5.1929,7.11347 z"
       id="path2854"
       style="fill:#ffffff;fill-opacity:1;stroke:#231f20;stroke-width:1px;stroke-linecap:butt;stroke-linejoin:miter;stroke-opacity:1"
       inkscape:connector-curvature="0" />
    <path
       d="m 883.7143,179.27245 c 1.5928,5.90518 2.6052,14.28567 5.2979,15.49891 2.8421,-1.74037 5.8164,-14.86558 8.7247,-22.30789 1.2477,-6.56194 -10.2588,0.47808 -14.0226,6.80898 z"
       id="path2856"
       style="fill:#ffffff;fill-opacity:1;stroke:#231f20;stroke-width:1px;stroke-linecap:butt;stroke-linejoin:miter;stroke-opacity:1"
       inkscape:connector-curvature="0" />
    <path
       d="m 909.2986,163.13602 c 2.2427,7.00016 4.4636,15.87184 6.7686,17.5079 3.7593,-0.25811 6.4957,-16.1917 9.7435,-24.28799 0.2451,-4.91638 -1.4261,-5.6223 -4.0568,-4.21973 -3.2786,1.74797 -10.8507,7.16877 -12.4553,10.99982 z"
       id="path2858"
       style="fill:#ffffff;fill-opacity:1;stroke:#231f20;stroke-width:1px;stroke-linecap:butt;stroke-linejoin:miter;stroke-opacity:1"
       inkscape:connector-curvature="0" />
    <path
       d="m 934.883,146.99959 c 0.3809,1.83314 5.6056,7.05655 9.5306,11.48376 3.0855,6.29808 5.176,-10.83711 6.4431,-14.78423 0.4961,-4.08259 -0.4241,-6.34027 -4.1629,-4.96557 -2.5169,0.92542 -9.7602,3.88748 -11.8108,8.26604 z"
       id="path2860"
       style="fill:#ffffff;fill-opacity:1;stroke:#231f20;stroke-width:1px;stroke-linecap:butt;stroke-linejoin:miter;stroke-opacity:1"
       inkscape:connector-curvature="0" />
    <path
       d="m 870.5655,300.38734 c 0.058,-5.89827 -4.6979,-3.05971 -10.3953,0.26425 -1.599,1.49671 1.1403,4.4082 8.0014,7.02107 2.4561,0.63166 2.425,-5.56602 2.3939,-7.28532 z"
       id="path2831"
       style="fill:#ffffff;stroke:#231f20;stroke-width:1px;stroke-linecap:butt;stroke-linejoin:miter;stroke-opacity:1"
       inkscape:connector-curvature="0" />
    <path
       d="m 882.3328,314.57278 7.0032,-6.46203 c 9.2727,-6.96847 4.7218,9.32774 5.0436,13.14516 -0.3783,2.32266 -4.3493,1.3442 -7.7072,-0.59548 -3.1654,-1.82841 -7.1465,-3.37202 -4.3396,-6.08765 z"
       id="path2833"
       style="fill:#ffffff;stroke:#231f20;stroke-width:1px;stroke-linecap:butt;stroke-linejoin:miter;stroke-opacity:1"
       inkscape:connector-curvature="0" />
    <path
       d="m 906.6478,325.43975 14.548,-9.83856 c 5.2571,-1.43819 2.3641,11.8947 2.6965,16.38957 -0.7289,2.75867 -5.6394,2.30711 -11.6885,-0.63929 -9.6582,-4.01869 -5.2451,-4.34549 -5.556,-5.91172 z"
       id="path2835"
       style="fill:#ffffff;stroke:#231f20;stroke-width:1px;stroke-linecap:butt;stroke-linejoin:miter;stroke-opacity:1"
       inkscape:connector-curvature="0" />
    <path
       d="m 933.084,335.94645 10.4936,-8.73092 c 2.2657,-1.61757 3.8347,-2.14145 4.9202,-1.90595 4.1747,0.90574 1.9673,12.86087 2.2177,16.99992 0.8656,5.77776 -7.7439,2.24411 -11.0689,0.92011 -9.3295,-3.26343 -7.6553,-6.25342 -6.5626,-7.28316 z"
       id="path2837"
       style="fill:#ffffff;stroke:#231f20;stroke-width:1px;stroke-linecap:butt;stroke-linejoin:miter;stroke-opacity:1"
       inkscape:connector-curvature="0" />
    <path
       d="m 361.9989,1073.084 c -0.3242,-7.6007 0.1097,-13.8468 -0.3352,-20.2413 0.202,-11.9787 -17.4775,-12.8003 -21.8058,-10.7646 -3.1784,1.4949 -4.5592,6.4659 -3.3433,16.4584 1.6575,2.4626 12.4754,10.0098 19.4829,15.903 2.3488,1.7047 5.2509,5.142 6.0014,-1.3555 z"
       id="path2839"
       style="fill:#ff0000;stroke:#231f20;stroke-width:1px;stroke-linecap:butt;stroke-linejoin:miter;stroke-opacity:1"
       inkscape:connector-curvature="0" />
    <path
       d="m 397.9761,1067.6584 c 2.5074,-14.239 -3.323,-24.2328 -5.6607,-27.9991 -17.0358,-13.1846 -22.1448,-6.1118 -24.6494,-1.4609 -1.0459,1.9419 -1.4572,7.1846 1.4489,11.1679 3.4989,3.6597 12.6867,10.3284 19.4662,17.3279 3.7719,3.7018 5.9084,6.37 7.2037,6.1388 1.4429,-0.2576 1.8256,-2.6985 2.1913,-5.1746 z"
       id="path2839-1"
       style="fill:#ff0000;stroke:#231f20;stroke-width:1px;stroke-linecap:butt;stroke-linejoin:miter;stroke-opacity:1"
       inkscape:connector-curvature="0" />
    <path
       d="m 422.8865,1057.9713 c 0.5731,-8.4393 0.2683,-14.9296 -2.6051,-21.1227 -7.2394,-8.9708 -14.7107,-9.7756 -19.7576,-8.5486 -3.2557,0.7914 -5.0488,4.2128 -3.9501,12.8339 2.104,3.3512 5.9509,3.8816 8.9191,6.4371 3.7108,3.1949 7.4158,6.8979 11.1205,10.6125 5.2254,7.4837 5.2626,2.4627 6.2732,-0.2122 z"
       id="path2839-4"
       style="fill:#ff0000;stroke:#231f20;stroke-width:1px;stroke-linecap:butt;stroke-linejoin:miter;stroke-opacity:1"
       inkscape:connector-curvature="0" />
    <path
       d="m 559.5804,994.8551 c 1.9485,-11.62529 -1.6175,-15.49797 -3.2215,-17.13944 -8.2535,-3.79062 -13.3767,1.64134 -12.0261,4.706 1.4044,2.88256 7.2581,5.53148 8.9711,12.93067 1.6498,1.52038 3.0966,3.81435 6.2765,-0.49723 z"
       id="path2839-9"
       style="fill:#ff0000;stroke:#231f20;stroke-width:1px;stroke-linecap:butt;stroke-linejoin:miter;stroke-opacity:1"
       inkscape:connector-curvature="0" />
    <path
       d="m 546.6497,1003.8261 c 0.5708,-6.93832 -2.8423,-12.00168 -6.943,-15.75745 -7.6609,-6.28359 -15.1345,-0.14285 -10.3326,6.15083 2.3319,3.7448 6.9898,3.53828 10.4291,10.09722 2.2573,1.9812 4.5043,4.8494 6.8465,-0.4906 z"
       id="path2839-8"
       style="fill:#ff0000;stroke:#231f20;stroke-width:1px;stroke-linecap:butt;stroke-linejoin:miter;stroke-opacity:1"
       inkscape:connector-curvature="0" />
    <path
       d="m 522.8661,1014.6664 c 7.7412,-14.97105 1.0332,-16.82773 -1.7634,-19.97286 -5.5438,-4.42695 -11.2182,-0.32813 -10.0312,4.72916 3.9687,4.8571 6.0814,11.5276 7.765,18.6173 l 4.0296,-3.3736 z"
       id="path2839-2"
       style="fill:#ff0000;stroke:#231f20;stroke-width:1px;stroke-linecap:butt;stroke-linejoin:miter;stroke-opacity:1"
       inkscape:connector-curvature="0" />
  </g>
</svg>
