<?xml version="1.0" encoding="UTF-8" standalone="no"?>
<!-- Created with Inkscape (http://www.inkscape.org/) -->

<svg
   xmlns:dc="http://purl.org/dc/elements/1.1/"
   xmlns:cc="http://creativecommons.org/ns#"
   xmlns:rdf="http://www.w3.org/1999/02/22-rdf-syntax-ns#"
   xmlns:svg="http://www.w3.org/2000/svg"
   xmlns="http://www.w3.org/2000/svg"
   xmlns:sodipodi="http://sodipodi.sourceforge.net/DTD/sodipodi-0.dtd"
   xmlns:inkscape="http://www.inkscape.org/namespaces/inkscape"
   width="297mm"
   height="210mm"
   id="svg3097"
   version="1.1"
   inkscape:version="0.48.2 r9819"
   sodipodi:docname="New document 3">
  <defs
     id="defs3099" />
  <sodipodi:namedview
     inkscape:document-units="mm"
     pagecolor="#ffffff"
     bordercolor="#666666"
     borderopacity="1.0"
     inkscape:pageopacity="0.0"
     inkscape:pageshadow="2"
     inkscape:zoom="0.43415836"
     inkscape:cx="215.90646"
     inkscape:cy="380"
     inkscape:current-layer="layer1"
     id="namedview3101"
     showgrid="false"
     inkscape:window-width="1280"
     inkscape:window-height="969"
     inkscape:window-x="-2"
     inkscape:window-y="-3"
     inkscape:window-maximized="1" />
  <metadata
     id="metadata3103">
    <rdf:RDF>
      <cc:Work
         rdf:about="">
        <dc:format>image/svg+xml</dc:format>
        <dc:type
           rdf:resource="http://purl.org/dc/dcmitype/StillImage" />
        <dc:title></dc:title>
      </cc:Work>
    </rdf:RDF>
  </metadata>
  <g
     inkscape:label="Layer 1"
     inkscape:groupmode="layer"
     id="layer1">
    <g
       transform="matrix(0.45153015,0,0,0.45153015,-13.09289,24.015717)"
       id="g3066">
      <path
         d="m 512.465,533.297 c 0,20.3608 14.4309,33.3308 33.3308,33.3308 49.219,0 79.1614,-23.6547 79.1614,-74.9948 -18.2255,12.2035 -41.7774,37.4974 -70.8282,37.4974 -6.09288,0 -6.11296,-5.13744 -8.33328,-8.33328 22.3402,-30.4904 66.9048,-14.053 79.1614,-66.6615 l -20.832,0 c -43.8808,0 -91.6602,33.7229 -91.6602,79.1614 z"
         id="path6"
         inkscape:connector-curvature="0"
         style="fill:#ffffff" />
      <path
         d="m 745.781,462.467 c -34.6027,23.1716 -64.0633,46.7826 -98.3424,72.4792 -10.7284,8.04275 -78.5201,80.3661 -84.978,90.0103 l -12.4987,24.9975 c 49.3017,11.4866 90.7354,29.1653 154.156,29.1653 48.162,0 148.811,-17.309 166.655,-41.664 -69.7145,0 -211.585,-2.14946 -237.484,-37.4974 39.7142,3.30449 304.146,32.4662 304.146,54.1628 0,15.3887 -36.4593,30.1774 -49.9961,33.3308 l 0,8.33328 c 17.9645,4.18554 22.8232,12.4987 45.8295,12.4987 l 20.832,0 c 22.4654,0 66.6627,-7.10266 66.6627,-24.9975 0,-15.6367 -18.6259,-23.4881 -20.832,-49.9973 46.1909,-3.84304 99.9923,-46.4696 99.9923,-95.8268 l 0,-20.8308 c 0,-47.7239 -42.9029,-71.2852 -87.4935,-74.9948 6.0244,22.5599 58.3294,27.9736 58.3294,74.9948 0,53.3042 -94.7698,91.6602 -158.322,91.6602 l -79.335,2.08096 -195.846,-16.3453 -1.76326,-5.8366 51.8503,-25.7817 -13.6467,28.6173 3.55841,5.25436 69.0035,-33.6473 -10.2902,28.4567 4.38513,4.93312 71.3809,-47.1369 4.07924,2.35377 -20.0348,48.7183 c 41.9239,-3.48873 51.6271,-42.6809 74.9948,-58.3294 0.0661,0.0803 4.16664,7.77229 4.16664,8.33328 0,23.0063 -8.31438,27.865 -12.4999,45.8295 81.1078,-18.8951 39.478,-32.9221 87.4947,-58.3294 9.29109,2.16481 29.1641,6.52986 29.1641,16.6654 0,15.6922 -2.74233,7.87859 -4.16664,24.9987 8.94151,-10.2867 20.832,-18.4712 20.832,-37.4974 l 0,-29.1641 c 0,-37.1195 -33.4382,-67.8484 -66.6981,-67.6784 l -168.702,7.26564 -14.5832,10.4154 z"
         id="path8"
         inkscape:connector-curvature="0"
         style="fill:#da251d" />
      <path
         d="m 2037.36,979.099 c 0,10.6162 9.0088,24.9975 20.832,24.9975 l 20.832,0 c 24.5085,0 53.616,-29.6094 54.1628,-54.1628 l -62.4961,0 c -10.4402,0 -33.3308,19.3002 -33.3308,29.1653 z"
         id="path12"
         inkscape:connector-curvature="0"
         style="fill:#ffffff" />
      <path
         d="m 345.81,1116.59 41.664,-37.4974 c -38.9276,-10.3942 -64.2912,-35.1625 -108.49,-4.3296 -17.6586,12.3169 -56.1811,55.6591 -66.4985,75.1578 31.2002,-7.268 61.4579,-37.4974 99.9935,-37.4974 l 4.16546,0 c 14.3648,0 16.1327,3.0824 29.1653,4.1666 z"
         id="path14"
         inkscape:connector-curvature="0"
         style="fill:#da251d" />
      <path
         d="m 354.142,1220.75 15.7584,-44.2139 -19.9238,-14.1156 c -11.822,-2.7541 -7.12273,-4.1666 -16.6654,-4.1666 -74.3051,0 -108.327,65.9423 -108.327,141.656 17.7614,-20.434 61.3658,-87.4935 91.6602,-87.4935 17.922,0 22.5847,4.8587 37.4974,8.3332 z"
         id="path16"
         inkscape:connector-curvature="0"
         style="fill:#da251d" />
      <path
         d="m 1058.26,1199.92 4.1655,-54.1628 c -66.13714,1.4727 -91.16654,73.391 -104.15904,129.158 31.6738,-21.2099 54.20414,-73.9756 99.99354,-74.9948 z"
         id="path18"
         inkscape:connector-curvature="0"
         style="fill:#da251d" />
      <path
         d="m 387.474,1245.75 c -77.2517,0 -92.0086,101.43 -54.1628,129.158 0.96253,-43.236 18.1818,-62.9165 41.6629,-83.3269 l 42.1317,24.2523 12.0311,-3.4202 c -9.31235,-13.9089 -24.9975,-28.9149 -24.9975,-49.9973 0,-11.2528 1.98884,-11.4878 3.95288,-21.6812 l -20.6183,5.0158 z"
         id="path20"
         inkscape:connector-curvature="0"
         style="fill:#da251d" />
      <path
         d="m 1087.42,1258.25 -16.6654,-45.8307 c -41.866,3.484 -81.3416,58.0141 -74.9948,104.16 l 4.9343,41.5577 c 22.6118,-17.0244 27.0855,-98.5585 86.7259,-99.8872 z"
         id="path22"
         inkscape:connector-curvature="0"
         style="fill:#da251d" />
      <path
         d="m 2037.36,979.099 c 0,-9.86506 22.8905,-29.1653 33.3308,-29.1653 l 62.4961,0 c -0.5468,24.5534 -29.6542,54.1628 -54.1628,54.1628 l -20.832,0 c -11.8232,0 -20.832,-14.3813 -20.832,-24.9975 z M 512.47,533.297 c 0,-45.4386 47.7794,-79.1614 91.6602,-79.1614 l 20.832,0 c -12.2566,52.6086 -56.8213,36.1711 -79.1614,66.6615 2.22032,3.19584 2.2404,8.33328 8.33328,8.33328 29.0507,0 52.6026,-25.2939 70.8282,-37.4974 0,51.3401 -29.9424,74.9948 -79.1614,74.9948 -18.8999,0 -33.3308,-12.97 -33.3308,-33.3308 z m -124.991,545.794 -41.664,37.4974 4.16664,45.8307 19.9238,14.1156 -15.7584,44.2139 33.3319,24.9975 20.6183,-5.0158 c -1.96404,10.1934 -3.95288,10.4284 -3.95288,21.6812 0,21.0824 15.6851,36.0884 24.9975,49.9973 11.7264,2.7317 21.171,8.3321 33.3319,8.3321 28.7708,0 41.6629,-23.2685 41.6629,-54.1628 35.0456,-18.5432 66.4407,-54.1628 116.659,-54.1628 l 45.8307,0 c 56.9098,0 106.219,19.2636 132.625,-21.53 22.8232,-35.2594 14.8159,-85.9216 25.6966,-132.626 l 4.7914,8.1254 53.4353,5.3335 c 37.9639,3.0955 135.32604,-7.6589 167.64804,-12.5684 25.3022,-3.8418 142.004,-19.4833 157.432,-17.5559 l 45.7563,4.7572 23.9523,-38.8154 c 1.1196,96.5319 29.111,78.6831 42.7836,129.885 -10.9835,5.4456 3.4296,4.1666 -12.4999,4.1666 l -33.3308,0 c -125.574,0 -93.3254,-74.9948 -141.656,-74.9948 -22.8894,0 -23.1657,25.0778 -29.4476,37.2151 -6.7472,13.0396 -25.0069,10.1485 -41.3818,21.1143 l 0,20.832 -4.1655,54.1628 12.4987,12.4987 16.6654,45.8307 24.9987,0 -5.0666,29.059 c 10.0316,13.7424 38.5544,50.1012 59.2294,50.1012 58.0401,0 39.8618,-88.1065 175.102,-83.4415 39.3351,1.357 212.371,47.02 212.371,-8.2187 l 0,-4.1655 c 0,-4.006 -16.6654,-60.0537 -16.6654,-87.4947 0,-55.4867 10.2253,-124.808 62.4961,-129.158 -9.7989,18.5184 -33.3319,36.8585 -33.3319,58.3294 0,76.8655 294.923,241.65 395.806,241.65 l 54.1628,0 c 64.8569,0 152.472,-54.4604 186.452,-88.5293 25.2089,-25.275 45.1906,-41.377 67.0087,-70.4809 9.0986,-12.135 49.6454,-70.1538 50.6847,-82.6395 l -41.6959,8.194 43.0045,-116.06505 -2.7884,-3.28914 -44.554,23.2755 10.1816,-82.7541 c -1.0841,-5.23546 -3.8029,-8.45965 -5.8118,-16.8484 l -34.4645,32.3222 -3.0057,-3.16159 -15.6214,-87.6801 -4.6851,-3.4781 -29.4109,28.9775 c -11.0118,-46.2653 -56.6417,-108.636 -112.798,-108.636 l -41.664,0 -37.4218,4.66503 c 2.4813,30.227 45.2555,13.0833 71.6336,31.9513 18.2645,13.0644 42.6892,32.0458 44.9496,59.2105 -71.5498,1.5932 -154.156,48.7502 -154.156,120.824 l 0,8.33328 c 0,43.26787 38.0785,72.65047 75.3857,78.85907 64.388,10.7166 72.9457,-18.77 116.268,-28.863 -11.6342,49.9383 -20.6879,99.9935 -83.3281,99.9935 -35.9692,0 -46.2759,-28.0138 -66.6615,-41.664 l 5.8732,58.6566 c -31.8663,-8.325 -50.7803,-54.7438 -51.7039,-96.154 l -16.5036,-4.6768 -27.5473,59.6486 c -1.7786,-27.4327 -10.1119,-32.5147 -10.1119,-59.1384 l 0,-4.1667 c 0,-35.668 19.9392,-47.71315 24.9987,-66.66145 l -12.4987,0 c -23.0063,0 -27.8662,8.3132 -45.8307,12.4987 l -4.5977,-2.78366 49.9418,-82.4825 -3.68,-2.2274 -29.1653,0 -58.5739,6.55703 c 3.6139,-38.7009 37.7147,-53.3431 41.9085,-69.0531 -10.9823,-5.4445 3.4308,-4.16664 -12.4987,-4.16664 l -16.6654,0 c -22.404,0 -38.8839,11.0402 -55.567,19.4278 -39.7945,20.0065 -16.3099,9.73751 -56.9252,9.73751 -23.7728,0 -27.4174,29.3342 -45.8307,41.664 l -11.6767,43.4852 -4.9887,-1.82231 c -40.9094,-3.4037 -91.8775,-41.233 -137.49,-33.3308 l -129.551,18.568 0.3933,-10.2347 c 16.3016,-1.35699 38.1848,-15.1301 62.4901,-16.6713 21.2784,-1.34873 52.6688,-2.03017 73.3803,-5.86849 66.9048,-12.3972 85.7633,30.8719 122.445,30.8719 13.9337,0 18.7392,-26.4135 29.8361,-40.9909 15.965,-20.9702 15.4005,-19.6569 36.8254,-34.0039 27.7634,0 65.3648,-8.70294 70.8282,-29.1641 l -58.3282,0 c -148.211,0 -262.113,32.5808 -379.2,62.437 -56.5095,14.4096 -111.915,35.407 -169.991,50.8264 -26.7277,7.09557 -59.2624,18.4983 -84.6213,27.8697 -24.3668,9.00528 -59.2093,29.7794 -74.4728,33.8551 23.3393,-34.8531 258.651,-108.539 317.444,-124.194 102.376,-27.2579 251.609,-59.1278 378.341,-59.1278 l 129.158,0 79.1036,4.94021 c -7.966,-30.8223 -211.236,-29.6649 -28.3291,-174.984 35.8959,-28.5193 66.4229,-49.4186 103.324,-75.8298 21.8005,-15.6025 97.7531,-50.7295 108.383,-66.6048 -55.8989,0 -484.477,200.106 -558.266,233.345 -87.94,39.615 -185.495,80.0129 -272.248,123.56 -46.0681,23.1244 -91.222,41.1869 -135.996,63.99 -22.1559,11.2835 -48.8505,17.9409 -70.9474,29.046 -21.4107,10.7603 -51.7039,37.5576 -54.1332,8.36162 43.3623,-10.1024 149.701,-68.074 198.645,-88.8352 64.7601,-27.4694 136.796,-57.4708 198.557,-88.9226 56.6878,-28.8689 139.638,-66.7737 198.026,-89.454 29.0011,-11.2646 71.9336,-30.8742 100.556,-45.2673 15.8387,-7.96362 31.3053,-13.7506 48.5305,-22.2988 20.4612,-10.1521 40.8539,-6.89362 43.1309,-27.6973 -49.3489,0 -41.5896,17.7732 -99.9935,4.16664 l 0,-24.9987 c 0,-83.2537 203.171,-173.096 241.65,-245.816 l -940.797,622 -9.18715,-17.8429 675.40895,-445.222 c -19.3947,3.81233 -54.9352,24.3869 -71.2344,24.3869 l -29.1641,0 c -9.715,0 -20.832,-11.1169 -20.832,-20.832 0,-82.8273 179.978,-184.816 183.32,-224.984 -27.8071,7.42507 -324.869,280.765 -379.921,324.195 -33.0166,26.0462 -57.1106,59.3604 -90.8831,84.1052 -21.6576,15.8682 -72.341,61.7449 -92.6877,82.3006 -37.6769,38.0631 -145.274,135.944 -186.45495,163.521 l -8.38406,-16.6347 c 38.77881,-25.9647 91.73811,-76.3695 128.10801,-109.458 41.3605,-37.6297 83.0682,-70.4479 124.987,-108.329 37.8659,-34.2189 86.0846,-77.2588 125.318,-107.998 23.4314,-18.359 116.786,-86.727 117.436,-115.882 l -73.8374,39.4414 c -8.6534,-8.45965 -13.6561,-6.92432 -13.6561,-18.6093 l 0,-4.16664 c 0,-61.2961 147.189,-199.666 149.99,-233.316 -27.6607,2.30181 -249.495,281.37 -286.379,321.912 -34.2071,37.5978 -268.31801,319.578 -284.41501,323.876 l -3.9387,-12.5861 c 15.7761,-23.8129 68.35391,-83.1769 90.33031,-105.173 32.7355,-32.765 59.6899,-71.9525 91.6566,-104.164 25.7628,-25.96 178.921,-187.247 167.76,-211.38 l -64.9833,48.0167 -15.2458,-17.9362 c 17.5665,-71.7316 121.893,-179.787 121.893,-200.901 0,-7.41799 -6.2476,-6.83693 -12.4987,-8.33328 -2.0137,8.63916 -89.8249,116.681 -105.763,140.055 -34.0571,49.9465 -65.6777,96.2579 -99.2234,146.592 -24.9845,37.4868 -180.94801,280.489 -186.65301,304.978 -18.8007,-21.6292 24.9975,-56.8602 24.9975,-91.6602 l 0,-20.832 c 0,-30.266 -81.9404,-48.534 -108.326,-62.4949 5.72204,21.4284 41.664,56.8024 41.664,83.3269 0,14.112 -7.84552,23.259 -16.6654,29.1653 0,-70.7089 -55.9024,-95.8268 -129.158,-95.8268 14.7167,21.9776 58.3282,36.4994 58.3282,70.8282 l 0,4.16664 c 0,9.34069 -3.29741,9.14582 -8.3321,16.6654 -57.1023,-38.2379 -28.0776,-64.7471 -129.158,-62.4961 6.58301,24.6562 35.5877,26.867 45.8295,70.8282 l -4.94257,12.2011 c -48.8553,-11.2646 -29.3507,-72.6764 -120.048,-74.696 10.0694,15.0379 37.4974,46.0799 37.4974,66.6615 l 0,8.33328 c 0,8.04275 -1.31093,7.41681 -4.16664,12.4987 -28.0599,-20.5592 -34.1468,-61.5961 -91.6602,-74.9948 5.48702,23.5519 20.832,33.0591 20.832,62.4961 0,11.5256 -3.21474,10.0198 -12.4987,12.4987 -7.35185,-31.5545 -49.8154,-86.5617 -91.6602,-87.4935 l 29.6318,77.3049 -4.63432,1.85538 c -29.8243,-19.9711 -45.3713,-81.5247 -83.3269,-91.6602 l 13.8829,45.3937 c -23.9912,-5.59922 -34.7149,-41.3759 -34.7149,-70.3912 0,-42.0845 19.5294,-104.16 58.3294,-104.16 12.3157,0 37.2825,24.9987 70.8282,24.9987 l 16.6654,0 c 13.0042,0 24.1117,-7.62112 33.3308,-12.4987 6.45782,-9.64421 74.2496,-81.9675 84.978,-90.0103 34.2791,-25.6966 63.7397,-49.3076 98.3424,-72.4792 45.3772,-67.7634 -14.8065,-116.658 -91.6602,-116.658 0,-64.6313 38.7044,-81.6357 45.8307,-108.326 l -16.6654,0 c -28.1484,0 -64.4613,66.4147 -79.1614,83.3269 -1.31211,-15.7619 -8.33328,-27.8142 -8.33328,-41.664 0,-49.3088 16.6441,-76.6293 24.9987,-112.492 -56.0831,14.9753 -54.1628,94.6163 -54.1628,166.655 -28.6622,-20.9997 -29.1641,-101.063 -29.1641,-154.155 -29.8302,19.9746 -32.2915,90.8193 -33.3319,137.49 -14.8206,-3.45212 -25.0424,-12.4987 -41.6629,-12.4987 -27.1044,0 -47.1144,9.31353 -69.5007,-5.49411 -8.98048,-5.94053 -26.3261,-39.0788 -26.3261,-52.8353 l 0,-24.9987 c -21.8359,5.8307 -29.1653,51.476 -29.1653,79.1614 0,39.9551 24.9987,85.7834 24.9987,87.4935 l 0,12.4999 c -42.375,0 -68.6681,15.8765 -79.1614,-29.1653 -18.183,4.85517 -29.1641,23.631 -29.1641,45.8307 0,37.6899 36.5053,37.5045 -14.2112,48.2813 -27.0713,5.75275 -45.7374,22.5469 -60.7836,22.5469 l -4.16664,0 c -23.1834,0 -29.9176,-18.509 -45.8295,-29.1641 -32.6245,67.9913 23.9948,87.4935 91.6602,87.4935 -16.1705,33.6992 -6.75307,37.8033 -48.4018,51.5917 -29.0956,9.6324 -38.0938,23.4031 -76.5904,23.4031 -6.89834,0 -23.4007,-9.44934 -29.1641,-12.4987 0.97198,43.6375 55.6946,73.4181 95.8268,54.1628 -7.48176,89.9052 -79.1614,106.425 -79.1614,120.824 0,22.6378 91.6602,-9.49186 91.6602,24.9987 l 0,29.1641 c 0,32.4804 -14.4675,56.0075 -20.832,83.3281 l 16.6654,0 c 29.9542,0 35.6987,-22.8563 49.9973,-33.3308 30.8589,58.3188 87.8691,88.7371 153.632,113.01397 27.3938,10.1131 181.066,57.8062 208.842,57.8062 29.0744,0 -5.87912,-39.028 29.1653,-62.49487 0,37.60367 -0.0614,62.61417 4.74416,95.49727 4.47725,30.6392 -18.0389,33.6603 -54.7415,33.6603 -52.1291,0 -146.337,-59.5778 -174.987,-45.8307 z"
         id="path24"
         inkscape:connector-curvature="0"
         style="fill:#2c2925" />
    </g>
  </g>
</svg>
